<svg width="46" height="40" viewBox="0 0 46 40" fill="none" xmlns="http://www.w3.org/2000/svg">
<path d="M5.81738 0.880859H39.9463C42.5606 0.880859 44.6002 3.145 44.3281 5.74512L41.249 35.1719C41.0143 37.415 39.1235 39.119 36.8682 39.1191H8.63672C6.3665 39.1191 4.46751 37.3937 4.25098 35.1338L1.43164 5.70605C1.18405 3.11912 3.21856 0.880859 5.81738 0.880859Z" fill="#C0FEB3" fill-opacity="0.24" stroke="#497975" stroke-width="1.76211"/>
<path d="M15.655 14.9629L10.4542 10.6422C10.2736 10.4922 10.2424 10.2256 10.3895 10.0427C14.1247 5.39943 20.3417 4.53371 23.0393 4.69155C28.4773 4.35793 33.3441 7.91936 35.4052 10.0319C35.5833 10.2145 35.556 10.5078 35.3551 10.6651L29.8324 14.9872C29.7167 15.0777 29.5626 15.104 29.4224 15.0598C23.6083 13.2245 18.2946 14.2219 16.1039 15.0364C15.9512 15.0932 15.7804 15.067 15.655 14.9629Z" fill="white" fill-opacity="0.4" stroke="#497975" stroke-width="1.76211" stroke-linecap="round"/>
<path d="M22.9072 13.9867V10.3303" stroke="#497975" stroke-width="1.76211" stroke-linecap="round"/>
</svg>
