<svg width="44" height="52" viewBox="0 0 44 52" fill="none" xmlns="http://www.w3.org/2000/svg">
<path d="M39.8499 3.96564C38.8186 2.99371 37.5942 2.22271 36.2466 1.69668C34.899 1.17065 33.4545 0.899902 31.9958 0.899902C30.537 0.899902 29.0926 1.17065 27.745 1.69668C26.3973 2.22271 25.1729 2.99371 24.1417 3.96564L22.0015 5.98179L19.8613 3.96564C17.7783 2.00333 14.9531 0.900919 12.0072 0.900919C9.0614 0.90092 6.2362 2.00333 4.15317 3.96564C2.07014 5.92794 0.899902 8.5894 0.899902 11.3645C0.899902 14.1396 2.07014 16.8011 4.15317 18.7634L6.29335 20.7796L22.0015 35.5773L37.7097 20.7796L39.8499 18.7634C40.8816 17.7919 41.7 16.6385 42.2584 15.369C42.8168 14.0994 43.1042 12.7387 43.1042 11.3645C43.1042 9.99033 42.8168 8.6296 42.2584 7.36008C41.7 6.09055 40.8816 4.93711 39.8499 3.96564Z" fill="#E9FAE8" stroke="#497975" stroke-width="1.8" stroke-linecap="round" stroke-linejoin="round"/>
<path d="M22.002 39.3408L22.002 50.9" stroke="#497975" stroke-width="1.8" stroke-linecap="round" stroke-linejoin="round"/>
<path d="M30.0665 42.8352L22.002 50.8997L13.9375 42.8352" stroke="#497975" stroke-width="1.8" stroke-linecap="round" stroke-linejoin="round"/>
</svg>
