<svg width="39" height="51" viewBox="0 0 39 51" fill="none" xmlns="http://www.w3.org/2000/svg">
<circle cx="19.4758" cy="31.3305" r="18.6694" fill="#C0FEB3" fill-opacity="0.24" stroke="#497975" stroke-width="1.6129"/>
<path d="M15.0002 8.54833C14.3396 8.13383 13.4243 6.88544 14.8313 5.12078C14.9395 4.98502 15.0777 4.87691 15.2221 4.78048C16.2805 4.07365 17.6945 2.49148 16.2502 0.806396" stroke="#497975" stroke-width="1.6129" stroke-linecap="round"/>
<path d="M23.0856 8.54833C22.425 8.13383 21.5097 6.88544 22.9167 5.12078C23.025 4.98502 23.1632 4.87691 23.3076 4.78048C24.366 4.07365 25.78 2.49148 24.3356 0.806396" stroke="#497975" stroke-width="1.6129" stroke-linecap="round"/>
<path d="M10 27.4597C11.0349 28.4812 13.6532 29.9113 15.8468 27.4597" stroke="#497975" stroke-width="1.6129" stroke-linecap="round"/>
<path d="M22.9839 27.4192C24.0188 28.4407 26.6371 29.8708 28.8307 27.4192" stroke="#497975" stroke-width="1.6129" stroke-linecap="round"/>
<path d="M17.5 36.9353H21.4113" stroke="#497975" stroke-width="1.6129" stroke-linecap="round"/>
</svg>
