<svg width="44" height="44" viewBox="0 0 44 44" fill="none" xmlns="http://www.w3.org/2000/svg">
<mask id="path-1-inside-1_5_331" fill="white">
<path fill-rule="evenodd" clip-rule="evenodd" d="M20.9414 42.6586C20.9414 43.1173 20.559 43.4856 20.1017 43.4505C8.85636 42.5886 0 33.1925 0 21.7263C0.000150641 10.2602 8.85646 0.864913 20.1017 0.00304369C20.559 -0.0320091 20.9414 0.336244 20.9414 0.794936V42.6586Z"/>
</mask>
<path d="M0 21.7263L-1.6171 21.7263V21.7263H0ZM20.1017 43.4505L19.9781 45.0629L20.1017 43.4505ZM20.1017 43.4505L20.2253 41.8382C9.81597 41.0403 1.6171 32.3407 1.6171 21.7263H0H-1.6171C-1.6171 34.0444 7.89675 44.1369 19.9781 45.0629L20.1017 43.4505ZM0 21.7263L1.6171 21.7263C1.61724 11.1121 9.816 2.41321 20.2253 1.61542L20.1017 0.00304369L19.9781 -1.60933C7.89692 -0.683388 -1.61694 9.40829 -1.6171 21.7263L0 21.7263ZM20.9414 0.794936H19.3243V42.6586H20.9414H22.5585V0.794936H20.9414ZM20.1017 0.00304369L20.2253 1.61542C19.7051 1.65529 19.3243 1.23898 19.3243 0.794936H20.9414H22.5585C22.5585 -0.566495 21.413 -1.7193 19.9781 -1.60933L20.1017 0.00304369ZM20.1017 43.4505L19.9781 45.0629C21.413 45.1729 22.5585 44.0201 22.5585 42.6586H20.9414H19.3243C19.3243 42.2146 19.7051 41.7983 20.2253 41.8382L20.1017 43.4505Z" fill="#497975" mask="url(#path-1-inside-1_5_331)"/>
<circle cx="13.1389" cy="17.0991" r="1.85967" fill="#497975" stroke="#497975" stroke-width="0.080855"/>
<path d="M12.0068 24.74C13.058 26.0606 16.1143 28.4351 19.9306 27.3678" stroke="#497975" stroke-width="1.6171" stroke-linecap="round"/>
<mask id="path-5-inside-2_5_331" fill="white">
<path fill-rule="evenodd" clip-rule="evenodd" d="M22.5586 42.6581C22.5586 43.1168 22.941 43.4851 23.3983 43.45C34.6435 42.5882 43.4998 33.1929 43.5 21.7268C43.5 10.2605 34.6436 0.864454 23.3983 0.00255552C22.941 -0.0324981 22.5586 0.335755 22.5586 0.794447V42.6581Z"/>
</mask>
<path fill-rule="evenodd" clip-rule="evenodd" d="M22.5586 42.6581C22.5586 43.1168 22.941 43.4851 23.3983 43.45C34.6435 42.5882 43.4998 33.1929 43.5 21.7268C43.5 10.2605 34.6436 0.864454 23.3983 0.00255552C22.941 -0.0324981 22.5586 0.335755 22.5586 0.794447V42.6581Z" fill="#C0FEB3" fill-opacity="0.24"/>
<path d="M43.5 21.7268H45.1171V21.7268L43.5 21.7268ZM23.3983 43.45L23.2747 41.8377L23.3983 43.45ZM23.3983 43.45L23.2747 41.8377C33.684 41.0399 41.8828 32.341 41.8829 21.7268L43.5 21.7268L45.1171 21.7268C45.1169 34.0448 35.6031 44.1365 23.5219 45.0624L23.3983 43.45ZM43.5 21.7268H41.8829C41.8829 11.1124 33.684 2.41275 23.2747 1.61493L23.3983 0.00255552L23.5219 -1.60982C35.6032 -0.68384 45.1171 9.40871 45.1171 21.7268H43.5ZM22.5586 0.794447H24.1757V42.6581H22.5586H20.9415V0.794447H22.5586ZM23.3983 0.00255552L23.2747 1.61493C23.795 1.6548 24.1757 1.23848 24.1757 0.794447H22.5586H20.9415C20.9415 -0.566971 22.087 -1.7198 23.5219 -1.60982L23.3983 0.00255552ZM23.3983 43.45L23.5219 45.0624C22.087 45.1724 20.9415 44.0196 20.9415 42.6581H22.5586H24.1757C24.1757 42.2141 23.795 41.7978 23.2747 41.8377L23.3983 43.45Z" fill="#497975" mask="url(#path-5-inside-2_5_331)"/>
<circle cx="1.90009" cy="1.90009" r="1.85967" transform="matrix(-1 0 0 1 32.2612 15.199)" fill="#497975" stroke="#497975" stroke-width="0.080855"/>
<path d="M31.6143 29.0913C30.5631 27.7707 27.5068 25.3962 23.6905 26.4635" stroke="#497975" stroke-width="1.6171" stroke-linecap="round"/>
</svg>
