<svg width="50" height="33" viewBox="0 0 50 33" fill="none" xmlns="http://www.w3.org/2000/svg">
<path d="M29.7721 0.957764L26.2158 8.16141" stroke="#5B8682" stroke-width="1.82371" stroke-linecap="round"/>
<path d="M18.7841 0.912109L22.3403 8.11576" stroke="#5B8682" stroke-width="1.82371" stroke-linecap="round"/>
<mask id="path-3-outside-1_120_204" maskUnits="userSpaceOnUse" x="-0.17627" y="8.39551" width="50" height="25" fill="black">
<rect fill="white" x="-0.17627" y="8.39551" width="50" height="25"/>
<path d="M42.5835 10.3955C45.4539 10.3956 47.7807 12.7224 47.7808 15.5928C47.7808 17.4619 46.7941 19.0999 45.3132 20.0155C44.9517 20.239 44.9271 20.894 45.2709 21.1438C46.5709 22.0882 47.4164 23.6198 47.4165 25.3496C47.4165 28.2201 45.0888 30.5479 42.2183 30.5479C39.3479 30.5476 37.021 28.22 37.021 25.3496C37.021 25.2009 36.903 25.0762 36.7543 25.0762H12.6934C12.4196 25.0762 12.2097 25.316 12.2167 25.5897C12.2177 25.6313 12.2183 25.673 12.2183 25.7148C12.2181 28.5852 9.89143 30.9121 7.021 30.9121C4.1506 30.9121 1.82389 28.5852 1.82373 25.7148C1.82373 23.8457 2.81022 22.2069 4.29102 21.291C4.65241 21.0675 4.67705 20.4128 4.33328 20.1631C3.03353 19.2187 2.18809 17.6875 2.18799 15.958C2.18799 13.0875 4.51569 10.7598 7.38623 10.7598C10.1031 10.76 12.333 12.8453 12.5638 15.5023C12.5856 15.7532 12.7876 15.958 13.0394 15.958H37.0343C37.232 15.958 37.3862 15.7904 37.3862 15.5928C37.3863 12.7223 39.713 10.3955 42.5835 10.3955Z"/>
</mask>
<path d="M42.5835 10.3955C45.4539 10.3956 47.7807 12.7224 47.7808 15.5928C47.7808 17.4619 46.7941 19.0999 45.3132 20.0155C44.9517 20.239 44.9271 20.894 45.2709 21.1438C46.5709 22.0882 47.4164 23.6198 47.4165 25.3496C47.4165 28.2201 45.0888 30.5479 42.2183 30.5479C39.3479 30.5476 37.021 28.22 37.021 25.3496C37.021 25.2009 36.903 25.0762 36.7543 25.0762H12.6934C12.4196 25.0762 12.2097 25.316 12.2167 25.5897C12.2177 25.6313 12.2183 25.673 12.2183 25.7148C12.2181 28.5852 9.89143 30.9121 7.021 30.9121C4.1506 30.9121 1.82389 28.5852 1.82373 25.7148C1.82373 23.8457 2.81022 22.2069 4.29102 21.291C4.65241 21.0675 4.67705 20.4128 4.33328 20.1631C3.03353 19.2187 2.18809 17.6875 2.18799 15.958C2.18799 13.0875 4.51569 10.7598 7.38623 10.7598C10.1031 10.76 12.333 12.8453 12.5638 15.5023C12.5856 15.7532 12.7876 15.958 13.0394 15.958H37.0343C37.232 15.958 37.3862 15.7904 37.3862 15.5928C37.3863 12.7223 39.713 10.3955 42.5835 10.3955Z" fill="#EAFBE9"/>
<path d="M42.5835 10.3955L42.5835 8.5718H42.5835V10.3955ZM47.7808 15.5928H49.6045V15.5927L47.7808 15.5928ZM47.4165 25.3496H49.2402V25.3495L47.4165 25.3496ZM42.2183 30.5479L42.2181 32.3716H42.2183V30.5479ZM37.021 25.3496L35.1973 25.3495V25.3496H37.021ZM12.2183 25.7148L14.042 25.7149V25.7148H12.2183ZM7.021 30.9121L7.02096 32.7358H7.021V30.9121ZM1.82373 25.7148H2.21729e-05V25.7149L1.82373 25.7148ZM2.18799 15.958H0.36428V15.9581L2.18799 15.958ZM7.38623 10.7598L7.38637 8.93606H7.38623V10.7598ZM37.3862 15.5928L35.5625 15.5927V15.5928H37.3862ZM4.29102 21.291L3.33169 19.74L4.29102 21.291ZM4.33328 20.1631L5.40524 18.6877L4.33328 20.1631ZM45.2709 21.1438L46.3428 19.6683L45.2709 21.1438ZM42.5835 10.3955L42.5835 12.2192C44.4467 12.2192 45.957 13.7295 45.9571 15.5928L47.7808 15.5928L49.6045 15.5927C49.6043 11.7152 46.4612 8.57187 42.5835 8.5718L42.5835 10.3955ZM47.7808 15.5928H45.9571C45.9571 16.8037 45.3202 17.867 44.3541 18.4643L45.3132 20.0155L46.2723 21.5666C48.2679 20.3327 49.6045 18.12 49.6045 15.5928H47.7808ZM45.2709 21.1438L44.199 22.6192C45.0474 23.2356 45.5928 24.2288 45.5928 25.3497L47.4165 25.3496L49.2402 25.3495C49.2401 23.0109 48.0944 20.9408 46.3428 19.6683L45.2709 21.1438ZM47.4165 25.3496H45.5928C45.5928 27.2129 44.0816 28.7241 42.2183 28.7241V30.5479V32.3716C46.096 32.3716 49.2402 29.2274 49.2402 25.3496H47.4165ZM42.2183 30.5479L42.2184 28.7241C40.3555 28.724 38.8447 27.2131 38.8447 25.3496H37.021H35.1973C35.1973 29.2269 38.3404 32.3713 42.2181 32.3716L42.2183 30.5479ZM36.7543 25.0762V23.2525H12.6934V25.0762V26.8999H36.7543V25.0762ZM12.2167 25.5897L10.3935 25.636C10.3942 25.6624 10.3946 25.6887 10.3946 25.7148H12.2183H14.042C14.042 25.6574 14.0412 25.6002 14.0398 25.5435L12.2167 25.5897ZM12.2183 25.7148L10.3946 25.7147C10.3944 27.5781 8.88412 29.0884 7.021 29.0884V30.9121V32.7358C10.8987 32.7358 14.0417 29.5924 14.042 25.7149L12.2183 25.7148ZM7.021 30.9121L7.02103 29.0884C5.15789 29.0884 3.64754 27.5781 3.64744 25.7147L1.82373 25.7148L2.21729e-05 25.7149C0.000243187 29.5924 3.14332 32.7357 7.02096 32.7358L7.021 30.9121ZM1.82373 25.7148H3.64744C3.64744 24.5035 4.28446 23.4395 5.25036 22.842L4.29102 21.291L3.33169 19.74C1.33598 20.9744 2.21729e-05 23.188 2.21729e-05 25.7148H1.82373ZM4.33328 20.1631L5.40524 18.6877C4.55694 18.0713 4.01176 17.0785 4.0117 15.9579L2.18799 15.958L0.36428 15.9581C0.364415 18.2966 1.51013 20.3661 3.26131 21.6385L4.33328 20.1631ZM2.18799 15.958H4.0117C4.0117 14.0947 5.5229 12.5835 7.38623 12.5835V10.7598V8.93606C3.50849 8.93606 0.36428 12.0803 0.36428 15.958H2.18799ZM7.38623 10.7598L7.38609 12.5835C9.14841 12.5836 10.5973 13.937 10.7469 15.6601L12.5638 15.5023L14.3807 15.3445C14.0688 11.7535 11.0577 8.93633 7.38637 8.93606L7.38623 10.7598ZM13.0394 15.958V17.7817H37.0343V15.958V14.1343H13.0394V15.958ZM37.3862 15.5928L39.2099 15.5928C39.21 13.7295 40.7203 12.2192 42.5835 12.2192V10.3955V8.5718C38.7057 8.5718 35.5627 11.7152 35.5625 15.5927L37.3862 15.5928ZM37.0343 15.958V17.7817C38.3264 17.7817 39.2099 16.7082 39.2099 15.5928H37.3862H35.5625C35.5625 14.8727 36.1376 14.1343 37.0343 14.1343V15.958ZM12.5638 15.5023L10.7469 15.6601C10.8417 16.7516 11.7427 17.7817 13.0394 17.7817V15.958V14.1343C13.8326 14.1343 14.3294 14.7548 14.3807 15.3445L12.5638 15.5023ZM4.29102 21.291L5.25036 22.842C6.09779 22.3179 6.37539 21.4347 6.39901 20.8053C6.42263 20.1759 6.21198 19.2738 5.40524 18.6877L4.33328 20.1631L3.26131 21.6385C2.79835 21.3021 2.74726 20.8522 2.75416 20.6685C2.76106 20.4847 2.84564 20.0407 3.33169 19.74L4.29102 21.291ZM37.021 25.3496L38.8447 25.3497C38.8447 24.2532 37.9687 23.2525 36.7543 23.2525V25.0762V26.8999C35.8373 26.8999 35.1973 26.1486 35.1973 25.3495L37.021 25.3496ZM12.6934 25.0762V23.2525C11.2791 23.2525 10.3636 24.4563 10.3935 25.636L12.2167 25.5897L14.0398 25.5435C14.0558 26.1757 13.5602 26.8999 12.6934 26.8999V25.0762ZM45.3132 20.0155L44.3541 18.4643C43.5063 18.9886 43.2288 19.872 43.2051 20.5014C43.1815 21.1307 43.3921 22.033 44.199 22.6192L45.2709 21.1438L46.3428 19.6683C46.8059 20.0048 46.8569 20.4547 46.85 20.6382C46.8431 20.8217 46.7586 21.2659 46.2723 21.5666L45.3132 20.0155Z" fill="#5B8682" mask="url(#path-3-outside-1_120_204)"/>
</svg>
