<svg width="48" height="51" viewBox="0 0 48 51" fill="none" xmlns="http://www.w3.org/2000/svg">
<path d="M8.76709 29.6809C9.67442 30.5765 11.9699 31.8302 13.8929 29.6809" stroke="#497975" stroke-width="1.41402" stroke-linecap="round"/>
<path d="M20.1499 29.6458C21.0572 30.5413 23.3527 31.7951 25.2757 29.6458" stroke="#497975" stroke-width="1.41402" stroke-linecap="round"/>
<circle cx="17.0743" cy="33.0746" r="16.3673" fill="#C0FEB3" fill-opacity="0.24" stroke="#497975" stroke-width="1.41402"/>
<path d="M14.3755 37.6408C15.2965 36.6202 17.7508 35.1914 20.2002 37.6408" stroke="#497975" stroke-width="1.49352" stroke-linecap="round"/>
<path d="M22.8673 8.72826C16.8957 8.7896 16.714 4.16534 17.5194 1.2467C17.5998 0.955492 17.3342 0.675796 17.0472 0.770248C10.7576 2.84059 11.79 7.98803 13.6659 9.93602C17.2525 13.5227 21.6309 11.2656 23.17 9.25417C23.3459 9.0243 23.1568 8.72528 22.8673 8.72826Z" stroke="#497975" stroke-width="1.49352" stroke-linecap="round"/>
<rect x="26.3705" y="42.217" width="17.3588" height="7.6412" rx="0.95515" fill="#F5F5F5" stroke="#497975" stroke-width="1.41196"/>
<rect x="27.8242" y="43.7537" width="4.15282" height="4.56811" rx="0.415282" fill="#FE615C"/>
<path d="M46.2626 47.6779V44.7294C46.2626 44.5501 46.0881 44.4037 45.8687 44.3948L45.8474 44.3943V43.2551C46.8565 43.2551 47.6746 43.9152 47.6746 44.7294V47.6779C47.6746 48.4921 46.8565 49.1521 45.8474 49.1521H43.0234V43.2551H45.8474V44.3943H44.4354V48.0129H45.8474L45.8687 48.0125C46.0811 48.0038 46.2513 47.8664 46.2621 47.6951L46.2626 47.6779Z" fill="#497975"/>
</svg>
