<svg width="70" height="48" viewBox="0 0 70 48" fill="none" xmlns="http://www.w3.org/2000/svg">
<path d="M20.7963 22.2638C22.3117 19.7233 30.1667 7.78165 34.1286 1.13521C34.2915 0.862011 34.6589 0.840342 34.8383 1.10294C36.7257 3.86516 44.4993 16.0021 48.4929 22.2638C52.0513 29.7841 50.6175 35.6077 49.4559 37.5795C44.0266 46.2737 35.8215 47.0716 32.3977 46.3837C25.9779 45.6867 21.5299 40.2238 20.1084 37.5795C16.9903 31.7467 19.2678 24.9387 20.7963 22.2638Z" fill="#EAFBE9" stroke="#497975" stroke-width="1.83421"/>
<path d="M37.625 40.7894C40.4222 40.1627 45.9432 36.7633 45.6497 28.1792" stroke="#497975" stroke-width="1.83421" stroke-linecap="round"/>
<path d="M59.1787 19.4614C60.5942 18.9121 63.7421 17.4713 65.0097 16.1023" stroke="#497975" stroke-width="2.37294" stroke-linecap="round"/>
<path d="M61.4604 22.8838H68.1787" stroke="#497975" stroke-width="2.37294" stroke-linecap="round"/>
<path d="M59.7495 26.6233C60.827 27.236 63.2354 28.6261 64.2495 29.2852" stroke="#497975" stroke-width="2.37294" stroke-linecap="round"/>
<path d="M10.1865 19.5247C8.77104 18.9754 5.62318 17.5345 4.35558 16.1655" stroke="#497975" stroke-width="2.37294" stroke-linecap="round"/>
<path d="M7.90479 22.9473H1.18652" stroke="#497975" stroke-width="2.37294" stroke-linecap="round"/>
<path d="M9.61572 26.6865C8.53827 27.2992 6.12983 28.6893 5.11575 29.3485" stroke="#497975" stroke-width="2.37294" stroke-linecap="round"/>
</svg>
