<svg width="35" height="51" viewBox="0 0 35 51" fill="none" xmlns="http://www.w3.org/2000/svg">
<circle cx="17.2173" cy="33.3516" r="16.5044" fill="#C0FEB3" fill-opacity="0.24" stroke="#497975" stroke-width="1.42587"/>
<path d="M14.4956 37.956C15.4243 36.9269 17.8992 35.4862 20.3691 37.956" stroke="#497975" stroke-width="1.50602" stroke-linecap="round"/>
<path d="M23.0585 8.80127C17.0369 8.86313 16.8536 4.20014 17.6658 1.25705C17.7468 0.963408 17.479 0.681369 17.1897 0.776613C10.8473 2.86429 11.8884 8.05485 13.78 10.0191C17.3967 13.6359 21.8117 11.3598 23.3637 9.33159C23.5411 9.09979 23.3504 8.79827 23.0585 8.80127Z" stroke="#497975" stroke-width="1.50602" stroke-linecap="round"/>
<path d="M8.84033 29.9294C9.75526 30.8325 12.0699 32.0968 14.0091 29.9294" stroke="#497975" stroke-width="1.42587" stroke-linecap="round"/>
<path d="M20.3184 29.894C21.2333 30.7971 23.5479 32.0614 25.4871 29.894" stroke="#497975" stroke-width="1.42587" stroke-linecap="round"/>
</svg>
