<svg width="70" height="44" viewBox="0 0 70 44" fill="none" xmlns="http://www.w3.org/2000/svg">
<mask id="path-1-outside-1_121_286" maskUnits="userSpaceOnUse" x="-0.200195" y="-0.199951" width="70" height="44" fill="black">
<rect fill="white" x="-0.200195" y="-0.199951" width="70" height="44"/>
<path d="M35.2344 1.80005C43.869 1.80027 51.0395 8.06328 52.4541 16.2942C53.0968 16.195 53.7553 16.1438 54.4258 16.1438C61.5106 16.1438 67.2539 21.8871 67.2539 28.9719C67.2538 36.0567 61.5106 41.8 54.4258 41.8C53.3187 41.8 52.2445 41.6594 51.2197 41.3958H18.5156C17.4654 41.6594 16.3663 41.8 15.2344 41.8C7.81479 41.8 1.7998 35.7851 1.7998 28.3655C1.79993 20.946 7.81487 14.9309 15.2344 14.9309C16.2611 14.9309 17.261 15.0467 18.2217 15.2649C20.0339 7.54657 26.9632 1.80005 35.2344 1.80005Z"/>
</mask>
<path d="M35.2344 1.80005C43.869 1.80027 51.0395 8.06328 52.4541 16.2942C53.0968 16.195 53.7553 16.1438 54.4258 16.1438C61.5106 16.1438 67.2539 21.8871 67.2539 28.9719C67.2538 36.0567 61.5106 41.8 54.4258 41.8C53.3187 41.8 52.2445 41.6594 51.2197 41.3958H18.5156C17.4654 41.6594 16.3663 41.8 15.2344 41.8C7.81479 41.8 1.7998 35.7851 1.7998 28.3655C1.79993 20.946 7.81487 14.9309 15.2344 14.9309C16.2611 14.9309 17.261 15.0467 18.2217 15.2649C20.0339 7.54657 26.9632 1.80005 35.2344 1.80005Z" fill="#EAFBE8"/>
<path d="M35.2344 1.80005L35.2344 4.88758e-05H35.2344V1.80005ZM52.4541 16.2942L50.6801 16.5991L50.9798 18.3429L52.7285 18.0731L52.4541 16.2942ZM54.4258 16.1438V14.3438H54.4258L54.4258 16.1438ZM67.2539 28.9719L69.0539 28.9719V28.9719H67.2539ZM54.4258 41.8L54.4258 43.6H54.4258V41.8ZM51.2197 41.3958L51.6683 39.6525L51.4476 39.5958H51.2197V41.3958ZM18.5156 41.3958V39.5958H18.2931L18.0773 39.6499L18.5156 41.3958ZM15.2344 41.8V43.6H15.2344L15.2344 41.8ZM1.7998 28.3655L-0.000195265 28.3654V28.3655H1.7998ZM15.2344 14.9309L15.2344 13.1309H15.2344V14.9309ZM18.2217 15.2649L17.823 17.0202L19.5656 17.4159L19.974 15.6763L18.2217 15.2649ZM35.2344 1.80005L35.2343 3.60005C42.9775 3.60024 49.4114 9.2171 50.6801 16.5991L52.4541 16.2942L54.2281 15.9893C52.6676 6.90946 44.7605 0.000288486 35.2344 4.88758e-05L35.2344 1.80005ZM52.4541 16.2942L52.7285 18.0731C53.2804 17.988 53.8471 17.9438 54.4258 17.9438L54.4258 16.1438L54.4258 14.3438C53.6635 14.3438 52.9133 14.4021 52.1797 14.5152L52.4541 16.2942ZM54.4258 16.1438V17.9438C60.5165 17.9438 65.4539 22.8812 65.4539 28.9719H67.2539H69.0539C69.0539 20.8929 62.5048 14.3438 54.4258 14.3438V16.1438ZM67.2539 28.9719L65.4539 28.9719C65.4538 35.0626 60.5165 40 54.4258 40V41.8V43.6C62.5047 43.6 69.0538 37.0508 69.0539 28.9719L67.2539 28.9719ZM54.4258 41.8L54.4258 40C53.4717 40 52.5482 39.8789 51.6683 39.6525L51.2197 41.3958L50.7712 43.139C51.9408 43.4399 53.1657 43.6 54.4258 43.6L54.4258 41.8ZM51.2197 41.3958V39.5958H18.5156V41.3958V43.1958H51.2197V41.3958ZM18.5156 41.3958L18.0773 39.6499C17.1687 39.8781 16.2167 40 15.2343 40L15.2344 41.8L15.2344 43.6C16.516 43.6 17.7622 43.4408 18.9539 43.1416L18.5156 41.3958ZM15.2344 41.8V40C8.8089 40 3.5998 34.791 3.5998 28.3655H1.7998H-0.000195265C-0.000195265 36.7792 6.82068 43.6 15.2344 43.6V41.8ZM1.7998 28.3655L3.5998 28.3655C3.59991 21.9401 8.80901 16.7309 15.2344 16.7309V14.9309V13.1309C6.82073 13.1309 -5.61476e-05 19.9519 -0.000195265 28.3654L1.7998 28.3655ZM15.2344 14.9309L15.2343 16.7309C16.1254 16.7309 16.9916 16.8314 17.823 17.0202L18.2217 15.2649L18.6203 13.5096C17.5303 13.2621 16.3969 13.1309 15.2344 13.1309L15.2344 14.9309ZM18.2217 15.2649L19.974 15.6763C21.5996 8.75317 27.8175 3.60005 35.2344 3.60005V1.80005V4.88758e-05C26.1089 4.88758e-05 18.4683 6.33996 16.4693 14.8534L18.2217 15.2649Z" fill="#497975" mask="url(#path-1-outside-1_121_286)"/>
<path d="M58.6685 26.1436C58.6348 29.2749 56.1433 35.5375 46.4463 35.5375" stroke="#497975" stroke-width="1.8" stroke-linecap="round"/>
</svg>
