<svg width="69" height="43" viewBox="0 0 69 43" fill="none" xmlns="http://www.w3.org/2000/svg">
<path d="M55.0592 4.57438C53.8697 3.45327 52.4573 2.56393 50.9028 1.95716C49.3484 1.35039 47.6822 1.03809 45.9996 1.03809C44.317 1.03809 42.6508 1.35039 41.0963 1.95716C39.5419 2.56393 38.1295 3.45327 36.94 4.57438L34.4713 6.89998L32.0026 4.57438C29.5999 2.31088 26.3411 1.03926 22.9431 1.03926C19.545 1.03926 16.2862 2.31088 13.8835 4.57438C11.4807 6.83787 10.1309 9.90783 10.1309 13.1089C10.1309 16.31 11.4807 19.3799 13.8835 21.6434L16.3521 23.969L34.4713 41.0381L52.5905 23.969L55.0592 21.6434C56.2493 20.5228 57.1933 19.1924 57.8374 17.728C58.4815 16.2636 58.813 14.694 58.813 13.1089C58.813 11.5238 58.4815 9.95421 57.8374 8.48983C57.1933 7.02544 56.2493 5.69496 55.0592 4.57438Z" fill="#E9FAE8" stroke="#497975" stroke-width="2.07628" stroke-linecap="round" stroke-linejoin="round"/>
<path d="M66.5203 9.5769C67.8695 12.0535 69.4479 18.1379 64.9678 22.6623" stroke="#497975" stroke-width="2.07592" stroke-linecap="round"/>
<path d="M63.6368 12.7927C64.1173 13.8832 64.5683 16.7183 62.5278 19.3354" stroke="#497975" stroke-width="2.07592" stroke-linecap="round"/>
<path d="M2.44749 9.5769C1.09829 12.0535 -0.480091 18.1379 4 22.6623" stroke="#497975" stroke-width="2.07592" stroke-linecap="round"/>
<path d="M5.33052 12.7927C4.84998 13.8832 4.39902 16.7183 6.43945 19.3354" stroke="#497975" stroke-width="2.07592" stroke-linecap="round"/>
</svg>
