<svg width="151" height="41" viewBox="0 0 151 41" fill="none" xmlns="http://www.w3.org/2000/svg">
<path d="M37.4447 39.8107C36.9384 40.0407 36.7352 39.5614 36.6969 39.2929C35.2243 37.0841 34.1275 31.0096 33.7632 28.2485C33.0269 23.6006 33.0345 17.9135 33.1304 15.651C33.2685 6.63133 35.3738 2.72743 36.4092 1.90293C38.8942 -0.490027 41.3179 0.407333 42.2191 1.15513C43.5076 1.89143 44.8651 5.1434 45.3828 6.67735C45.9811 8.70216 46.1306 11.0491 46.1306 11.9695C46.3147 13.258 45.6321 16.4179 45.2678 17.8368C44.3474 20.69 42.5067 22.2469 41.7014 22.6688C38.25 24.5095 36.3134 22.5537 35.7765 21.3457C37.4467 24.1989 40.4223 23.3399 41.7014 22.5537C43.7262 21.3572 44.8076 18.8722 45.0952 17.7793C45.6935 16.3067 45.8814 13.2925 45.9006 11.9695C45.9466 10.0367 45.3445 7.63607 45.0377 6.67735C44.3014 3.87022 42.6984 2.01798 41.989 1.44275C39.7801 -0.167899 37.5789 1.30853 36.7544 2.24807C34.3614 4.27288 33.7632 12.027 33.7632 15.651C33.1649 26.6494 36.0066 35.7265 37.5022 38.8903C37.8703 39.4425 37.6172 39.734 37.4447 39.8107Z" fill="#497975" stroke="#497975" stroke-width="0.7"/>
<path d="M43.7269 6.50628C47.2698 6.23042 49.0761 8.88314 49.5364 10.2446C47.972 6.88588 45.0118 6.42899 43.7269 6.62054C42.4384 6.62054 40.8883 7.46433 40.2747 7.88616C39.7678 7.93306 37.0345 10.2446 35.7308 11.395C35.3626 11.6711 33.0076 13.8501 31.8763 14.9047C31.6445 15.1821 29.633 16.8605 28.6556 17.6655C28.1575 18.073 26.4299 19.3305 25.5892 19.9369C26.5503 21.9123 27.4939 24.3079 27.9652 25.6039C28.7935 27.4909 29.9594 32.7945 30.4388 35.2104C30.5766 35.5783 30.3809 35.7857 30.2659 35.8432C29.852 35.981 29.6715 35.6316 29.6331 35.4399C29.1269 32.5407 27.773 27.9044 27.1595 25.9487C26.9293 24.6601 25.6067 21.8069 24.9739 20.5414L24.9788 20.5375L24.8958 20.3471L24.8587 20.3686C21.0852 22.6695 18.4928 23.4752 17.6683 23.5903C14.9995 24.4644 11.6868 24.2227 10.3636 23.9926C7.55647 23.5784 5.12879 21.9028 4.26593 21.1166C2.01103 19.2299 0.9488 16.7256 0.699526 15.7094C-0.174735 12.3502 0.795563 10.0148 1.38996 9.26702C2.35636 7.56462 4.74484 6.79415 5.81867 6.62152C8.48753 6.20738 11.6089 7.1005 12.8362 7.59906C15.275 8.42733 17.8022 10.3217 18.761 11.1655C21.338 13.1902 23.5164 16.3039 24.2835 17.6078C24.6582 18.1431 25.0673 18.883 25.4769 19.7094C26.151 19.3111 27.7901 18.074 28.5403 17.4926C29.4607 16.7563 30.9949 15.4223 31.6468 14.8471C32.153 14.3869 34.5418 12.2778 35.6732 11.2807C37.4689 9.53235 39.4504 8.17474 40.2171 7.71429C41.7817 6.70188 43.2092 6.48711 43.7269 6.50628ZM12.6644 8.17425C9.81122 7.02379 6.95005 7.04332 5.87628 7.19671C3.66783 7.51883 2.19511 8.94053 1.73468 9.61175C0.446258 11.6824 0.81437 14.5396 1.15949 15.7094C1.75773 18.0563 3.70946 20.1009 4.61066 20.8295C6.49717 22.67 9.26951 23.4752 10.4202 23.6479C13.641 24.2 16.5556 23.6483 17.6107 23.3032C20.0036 22.889 23.2101 21.1365 24.514 20.3119L24.804 20.1371L24.679 19.851L23.6507 18.0102C22.6841 15.9394 19.72 12.9293 18.3587 11.683C16.7482 10.2106 13.8916 8.73039 12.6644 8.17425Z" fill="#497975"/>
<path d="M43.7269 6.50628L43.7139 6.85604L43.734 6.85679L43.754 6.85523L43.7269 6.50628ZM49.5364 10.2446L49.2192 10.3923L49.868 10.1325L49.5364 10.2446ZM43.7269 6.62054V6.97054H43.7528L43.7785 6.96671L43.7269 6.62054ZM40.2747 7.88616L40.307 8.23468L40.3978 8.22627L40.473 8.17458L40.2747 7.88616ZM35.7308 11.395L35.9408 11.675L35.9519 11.6666L35.9623 11.6574L35.7308 11.395ZM31.8763 14.9047L31.6376 14.6487L31.6217 14.6636L31.6077 14.6803L31.8763 14.9047ZM28.6556 17.6655L28.8772 17.9363L28.8781 17.9356L28.6556 17.6655ZM25.5892 19.9369L25.3844 19.6531L25.1456 19.8253L25.2745 20.0901L25.5892 19.9369ZM27.9652 25.6039L27.6362 25.7235L27.6401 25.7342L27.6447 25.7446L27.9652 25.6039ZM30.4388 35.2104L30.0955 35.2785L30.101 35.3065L30.111 35.3331L30.4388 35.2104ZM30.2659 35.8432L30.3765 36.1753L30.4001 36.1674L30.4225 36.1562L30.2659 35.8432ZM29.6331 35.4399L29.2882 35.5001L29.2899 35.5085L29.6331 35.4399ZM27.1595 25.9487L26.8149 26.0102L26.8189 26.0322L26.8255 26.0534L27.1595 25.9487ZM24.9739 20.5414L24.7553 20.2681L24.5344 20.4449L24.6609 20.698L24.9739 20.5414ZM24.9788 20.5375L25.1975 20.8108L25.4068 20.6434L25.2997 20.3977L24.9788 20.5375ZM24.8958 20.3471L25.2167 20.2072L25.0599 19.8477L24.7205 20.0442L24.8958 20.3471ZM24.8587 20.3686L24.6833 20.0656L24.6765 20.0698L24.8587 20.3686ZM17.6683 23.5903L17.6199 23.2436L17.589 23.2479L17.5593 23.2577L17.6683 23.5903ZM10.3636 23.9926L10.4236 23.6477L10.4147 23.6464L10.3636 23.9926ZM4.26593 21.1166L4.50165 20.8579L4.4962 20.8529L4.49054 20.8482L4.26593 21.1166ZM0.699526 15.7094L1.03948 15.626L1.03824 15.6213L0.699526 15.7094ZM1.38996 9.26702L1.66394 9.48481L1.68089 9.46349L1.69433 9.43981L1.38996 9.26702ZM5.81867 6.62152L5.765 6.27565L5.76311 6.27595L5.81867 6.62152ZM12.8362 7.59906L12.7045 7.92332L12.714 7.92717L12.7237 7.93046L12.8362 7.59906ZM18.761 11.1655L18.5298 11.4282L18.5372 11.4347L18.5448 11.4407L18.761 11.1655ZM24.2835 17.6078L23.9818 17.7853L23.9888 17.7972L23.9968 17.8086L24.2835 17.6078ZM25.4769 19.7094L25.1633 19.8648L25.3306 20.2024L25.6549 20.0107L25.4769 19.7094ZM28.5403 17.4926L28.7548 17.7693L28.759 17.7659L28.5403 17.4926ZM31.6468 14.8471L31.8784 15.1096L31.8822 15.1061L31.6468 14.8471ZM35.6732 11.2807L35.9046 11.5433L35.9111 11.5375L35.9173 11.5315L35.6732 11.2807ZM40.2171 7.71429L40.3974 8.01451L40.4072 8.00814L40.2171 7.71429ZM12.6644 8.17425L12.8088 7.85545L12.8021 7.85241L12.7953 7.84965L12.6644 8.17425ZM5.87628 7.19671L5.82679 6.85023L5.82577 6.85038L5.87628 7.19671ZM1.73468 9.61175L1.44606 9.41377L1.44164 9.42021L1.43751 9.42684L1.73468 9.61175ZM1.15949 15.7094L1.49888 15.6229L1.49518 15.6104L1.15949 15.7094ZM4.61066 20.8295L4.85507 20.579L4.8434 20.5676L4.83071 20.5574L4.61066 20.8295ZM10.4202 23.6479L10.4794 23.3028L10.4722 23.3018L10.4202 23.6479ZM17.6107 23.3032L17.551 22.9583L17.526 22.9626L17.5018 22.9705L17.6107 23.3032ZM24.514 20.3119L24.3333 20.0121L24.3269 20.0161L24.514 20.3119ZM24.804 20.1371L24.9847 20.4369L25.2477 20.2784L25.1247 19.997L24.804 20.1371ZM24.679 19.851L24.9997 19.7109L24.9929 19.6952L24.9846 19.6803L24.679 19.851ZM23.6507 18.0102L23.3335 18.1582L23.3389 18.1698L23.3451 18.1809L23.6507 18.0102ZM18.3587 11.683L18.595 11.4249L18.5949 11.4247L18.3587 11.683ZM43.7269 6.50628L43.754 6.85523C47.0748 6.59666 48.7726 9.07817 49.2049 10.3567L49.5364 10.2446L49.868 10.1325C49.3796 8.68811 47.4647 5.86418 43.6997 6.15734L43.7269 6.50628ZM49.5364 10.2446L49.8537 10.0968C48.2101 6.5682 45.0789 6.06512 43.6753 6.27436L43.7269 6.62054L43.7785 6.96671C44.9447 6.79286 47.7338 7.20356 49.2192 10.3923L49.5364 10.2446ZM43.7269 6.62054V6.27054C43.015 6.27054 42.2553 6.50125 41.6117 6.77267C40.9637 7.04594 40.402 7.37395 40.0764 7.59775L40.2747 7.88616L40.473 8.17458C40.7611 7.97655 41.2812 7.67174 41.8837 7.41766C42.4906 7.16172 43.1502 6.97054 43.7269 6.97054V6.62054ZM40.2747 7.88616L40.2425 7.53765C40.0972 7.55109 39.9402 7.62898 39.8173 7.69732C39.6771 7.77526 39.513 7.88118 39.3347 8.00483C38.9772 8.25281 38.5401 8.58782 38.0829 8.95345C37.1675 9.68563 36.1537 10.555 35.4992 11.1325L35.7308 11.395L35.9623 11.6574C36.6116 11.0846 37.6163 10.223 38.5201 9.50011C38.9727 9.13819 39.3954 8.81462 39.7337 8.58004C39.9033 8.46241 40.0461 8.37106 40.1575 8.30912C40.2862 8.23757 40.3255 8.23296 40.307 8.23468L40.2747 7.88616ZM35.7308 11.395L35.5208 11.115C35.3189 11.2664 34.6203 11.8971 33.8533 12.5998C33.0761 13.3118 32.2037 14.121 31.6376 14.6487L31.8763 14.9047L32.1149 15.1607C32.6801 14.6339 33.5509 13.8262 34.3261 13.116C35.1115 12.3965 35.7745 11.7997 35.9408 11.675L35.7308 11.395ZM31.8763 14.9047L31.6077 14.6803C31.5708 14.7245 31.4258 14.8613 31.181 15.0776C30.9471 15.2843 30.6454 15.5435 30.3191 15.8204C29.6668 16.3738 28.9209 16.9935 28.4331 17.3953L28.6556 17.6655L28.8781 17.9356C29.3676 17.5325 30.1163 16.9105 30.772 16.3541C31.0997 16.0761 31.4055 15.8134 31.6445 15.6022C31.8725 15.4007 32.0659 15.2236 32.1449 15.1291L31.8763 14.9047ZM28.6556 17.6655L28.4339 17.3946C27.9463 17.7936 26.2299 19.0432 25.3844 19.6531L25.5892 19.9369L25.7939 20.2208C26.6298 19.6178 28.3687 18.3524 28.8772 17.9363L28.6556 17.6655ZM25.5892 19.9369L25.2745 20.0901C26.2284 22.0506 27.1673 24.434 27.6362 25.7235L27.9652 25.6039L28.2941 25.4843C27.8204 24.1818 26.8722 21.7739 25.9039 19.7838L25.5892 19.9369ZM27.9652 25.6039L27.6447 25.7446C28.0446 26.6556 28.5368 28.4235 28.9928 30.2918C29.4463 32.1497 29.8566 34.0745 30.0955 35.2785L30.4388 35.2104L30.7821 35.1423C30.5416 33.9304 30.1292 31.9954 29.6729 30.1258C29.219 28.2666 28.7141 26.4392 28.2856 25.4633L27.9652 25.6039ZM30.4388 35.2104L30.111 35.3331C30.132 35.3891 30.1364 35.4283 30.1361 35.4527C30.1358 35.4768 30.1311 35.4925 30.1266 35.5026C30.1156 35.5277 30.0988 35.5354 30.1094 35.5301L30.2659 35.8432L30.4225 36.1562C30.548 36.0935 30.6866 35.9687 30.7677 35.7838C30.8537 35.5876 30.8644 35.3488 30.7666 35.0876L30.4388 35.2104ZM30.2659 35.8432L30.1554 35.5111C30.1025 35.5287 30.0777 35.5244 30.0718 35.5232C30.0657 35.5218 30.058 35.5189 30.0464 35.5082C30.0331 35.4959 30.0174 35.4755 30.003 35.4466C29.9886 35.4178 29.98 35.3897 29.9763 35.3712L29.6331 35.4399L29.2899 35.5085C29.3187 35.6524 29.3995 35.8633 29.5709 36.022C29.7662 36.2027 30.0482 36.2845 30.3765 36.1753L30.2659 35.8432ZM29.6331 35.4399L29.9779 35.3797C29.4674 32.4558 28.1072 27.8002 27.4934 25.8439L27.1595 25.9487L26.8255 26.0534C27.4389 28.0085 28.7864 32.6256 29.2883 35.5001L29.6331 35.4399ZM27.1595 25.9487L27.504 25.8871C27.381 25.1985 26.9769 24.1287 26.5398 23.0995C26.098 22.0592 25.606 21.0229 25.287 20.3849L24.9739 20.5414L24.6609 20.698C24.9746 21.3254 25.4603 22.3484 25.8955 23.3732C26.3355 24.4091 26.7078 25.4102 26.8149 26.0102L27.1595 25.9487ZM24.9739 20.5414L25.1926 20.8147L25.1975 20.8108L24.9788 20.5375L24.7602 20.2642L24.7553 20.2681L24.9739 20.5414ZM24.9788 20.5375L25.2997 20.3977L25.2167 20.2072L24.8958 20.3471L24.575 20.487L24.658 20.6774L24.9788 20.5375ZM24.8958 20.3471L24.7205 20.0442L24.6833 20.0657L24.8587 20.3686L25.0341 20.6715L25.0712 20.65L24.8958 20.3471ZM24.8587 20.3686L24.6765 20.0698C20.9224 22.3589 18.3772 23.138 17.6199 23.2436L17.6683 23.5903L17.7166 23.9369C18.6084 23.8125 21.248 22.9802 25.0409 20.6674L24.8587 20.3686ZM17.6683 23.5903L17.5593 23.2577C14.9681 24.1064 11.7204 23.8733 10.4235 23.6478L10.3636 23.9926L10.3036 24.3374C11.6532 24.5721 15.0309 24.8224 17.7772 23.9229L17.6683 23.5903ZM10.3636 23.9926L10.4147 23.6464C7.69765 23.2455 5.33158 21.6141 4.50165 20.8579L4.26593 21.1166L4.03021 21.3754C4.92599 22.1915 7.41529 23.9114 10.3125 24.3389L10.3636 23.9926ZM4.26593 21.1166L4.49054 20.8482C2.30287 19.0177 1.27437 16.5838 1.03945 15.626L0.699526 15.7094L0.359603 15.7928C0.623225 16.8675 1.71919 19.442 4.04133 21.3851L4.26593 21.1166ZM0.699526 15.7094L1.03824 15.6213C0.188808 12.3574 1.14485 10.1379 1.66394 9.48481L1.38996 9.26702L1.11597 9.04924C0.446277 9.89175 -0.538278 12.3429 0.36081 15.7976L0.699526 15.7094ZM1.38996 9.26702L1.69433 9.43981C2.12953 8.67317 2.89985 8.0949 3.72083 7.68352C4.53852 7.27379 5.36957 7.04821 5.87422 6.96708L5.81867 6.62152L5.76311 6.27595C5.19394 6.36746 4.29384 6.61343 3.40723 7.05769C2.52392 7.50031 1.61679 8.15848 1.08558 9.09424L1.38996 9.26702ZM5.81867 6.62152L5.87233 6.96738C8.45061 6.5673 11.5025 7.43505 12.7045 7.92332L12.8362 7.59906L12.968 7.27479C11.7153 6.76595 8.52444 5.84747 5.765 6.27566L5.81867 6.62152ZM12.8362 7.59906L12.7237 7.93046C15.0994 8.73731 17.5859 10.5976 18.5298 11.4282L18.761 11.1655L18.9923 10.9027C18.0184 10.0458 15.4507 8.11735 12.9488 7.26765L12.8362 7.59906ZM18.761 11.1655L18.5448 11.4407C21.0741 13.4279 23.2263 16.5009 23.9818 17.7853L24.2835 17.6078L24.5852 17.4304C23.8066 16.1069 21.6019 12.9524 18.9773 10.8902L18.761 11.1655ZM24.2835 17.6078L23.9968 17.8086C24.3563 18.3222 24.7562 19.0437 25.1633 19.8648L25.4769 19.7094L25.7905 19.554C25.3783 18.7224 24.96 17.9639 24.5702 17.4071L24.2835 17.6078ZM25.4769 19.7094L25.6549 20.0107C26.3522 19.5987 28.0106 18.346 28.7547 17.7693L28.5403 17.4926L28.3259 17.216C27.5696 17.8021 25.9498 19.0234 25.2988 19.4081L25.4769 19.7094ZM28.5403 17.4926L28.759 17.7659C29.6866 17.0238 31.2264 15.6848 31.8784 15.1095L31.6468 14.8471L31.4152 14.5847C30.7633 15.1599 29.2348 16.4888 28.3217 17.2193L28.5403 17.4926ZM31.6468 14.8471L31.8822 15.1061C32.3858 14.6483 34.7718 12.5417 35.9046 11.5433L35.6732 11.2807L35.4417 11.0181C34.3118 12.014 31.9201 14.1256 31.4114 14.5881L31.6468 14.8471ZM35.6732 11.2807L35.9173 11.5315C37.6905 9.80509 39.6495 8.46341 40.3973 8.01434L40.2171 7.71429L40.0369 7.41424C39.2512 7.88608 37.2473 9.2596 35.429 11.0299L35.6732 11.2807ZM40.2171 7.71429L40.4072 8.00814C41.9165 7.03155 43.2738 6.83974 43.7139 6.85604L43.7269 6.50628L43.7398 6.15652C43.1446 6.13448 41.6469 6.37222 40.027 7.42044L40.2171 7.71429ZM12.6644 8.17425L12.7953 7.84965C9.87561 6.67237 6.95074 6.68966 5.82679 6.85023L5.87628 7.19671L5.92578 7.54319C6.94936 7.39697 9.74684 7.37521 12.5335 8.49885L12.6644 8.17425ZM5.87628 7.19671L5.82577 6.85038C3.50045 7.18954 1.94893 8.68067 1.44606 9.41377L1.73468 9.61175L2.02331 9.80973C2.44129 9.20038 3.83521 7.84812 5.9268 7.54305L5.87628 7.19671ZM1.73468 9.61175L1.43751 9.42684C0.748648 10.5339 0.511325 11.8347 0.4846 12.9903C0.457848 14.1472 0.641339 15.19 0.823792 15.8084L1.15949 15.7094L1.49518 15.6104C1.33252 15.059 1.15939 14.0884 1.18441 13.0065C1.20946 11.9234 1.43229 10.7602 2.03185 9.79666L1.73468 9.61175ZM1.15949 15.7094L0.820332 15.7959C1.13491 17.03 1.80046 18.17 2.49202 19.0871C3.18425 20.005 3.91734 20.7191 4.39061 21.1017L4.61066 20.8295L4.83071 20.5574C4.40278 20.2114 3.7094 19.5388 3.05091 18.6656C2.39174 17.7915 1.7823 16.7358 1.49864 15.623L1.15949 15.7094ZM4.61066 20.8295L4.36625 21.08C6.32481 22.9908 9.1776 23.8153 10.3683 23.994L10.4202 23.6479L10.4722 23.3018C9.36141 23.135 6.66953 22.3492 4.85507 20.579L4.61066 20.8295ZM10.4202 23.6479L10.3611 23.9929C13.6451 24.5558 16.6175 23.9963 17.7195 23.6358L17.6107 23.3032L17.5018 22.9705C16.4938 23.3003 13.637 23.8442 10.4794 23.3029L10.4202 23.6479ZM17.6107 23.3032L17.6703 23.648C18.913 23.433 20.3463 22.8757 21.6194 22.2783C22.8969 21.6788 24.0373 21.0274 24.701 20.6078L24.514 20.3119L24.3269 20.0161C23.6867 20.421 22.5719 21.0581 21.322 21.6446C20.0677 22.2332 18.7012 22.7592 17.551 22.9583L17.6107 23.3032ZM24.514 20.3119L24.6946 20.6117L24.9847 20.4369L24.804 20.1371L24.6234 19.8374L24.3333 20.0122L24.514 20.3119ZM24.804 20.1371L25.1247 19.997L24.9997 19.7109L24.679 19.851L24.3583 19.9911L24.4833 20.2773L24.804 20.1371ZM24.679 19.851L24.9846 19.6803L23.9563 17.8395L23.6507 18.0102L23.3451 18.1809L24.3735 20.0217L24.679 19.851ZM23.6507 18.0102L23.9678 17.8621C23.4617 16.7779 22.4497 15.4759 21.4149 14.3056C20.3738 13.1281 19.2837 12.0553 18.595 11.4249L18.3587 11.683L18.1224 11.9412C18.795 12.557 19.8676 13.6124 20.8905 14.7692C21.9197 15.9332 22.873 17.1717 23.3335 18.1582L23.6507 18.0102ZM18.3587 11.683L18.5949 11.4247C16.9413 9.91294 14.042 8.41425 12.8088 7.85545L12.6644 8.17425L12.5199 8.49305C13.7413 9.04653 16.555 10.5082 18.1225 11.9414L18.3587 11.683Z" fill="#497975"/>
<path d="M85.6966 10.8713V11.4713C85.0566 11.4913 84.5666 11.5713 84.2266 11.7113C83.8866 11.8313 83.6566 12.0713 83.5366 12.4313C83.4366 12.7713 83.3866 13.3113 83.3866 14.0513V28.9313C83.3866 29.6513 83.4466 30.1913 83.5666 30.5513C83.6866 30.9113 83.9066 31.1513 84.2266 31.2713C84.5666 31.3913 85.0566 31.4713 85.6966 31.5113V32.1113C85.1766 32.0713 84.5166 32.0513 83.7166 32.0513C82.9166 32.0313 82.1066 32.0213 81.2866 32.0213C80.3866 32.0213 79.5366 32.0313 78.7366 32.0513C77.9566 32.0513 77.3266 32.0713 76.8466 32.1113V31.5113C77.5266 31.4713 78.0366 31.3913 78.3766 31.2713C78.7366 31.1513 78.9766 30.9113 79.0966 30.5513C79.2166 30.1913 79.2766 29.6513 79.2766 28.9313V12.6113L79.4866 12.6413L72.0466 32.2013H71.5666L63.6466 12.7913V27.6713C63.6466 28.6313 63.7066 29.3813 63.8266 29.9213C63.9466 30.4413 64.2066 30.8213 64.6066 31.0613C65.0266 31.2813 65.6566 31.4313 66.4966 31.5113V32.1113C66.1166 32.0713 65.6266 32.0513 65.0266 32.0513C64.4266 32.0313 63.8566 32.0213 63.3166 32.0213C62.8366 32.0213 62.3466 32.0313 61.8466 32.0513C61.3666 32.0513 60.9666 32.0713 60.6466 32.1113V31.5113C61.3066 31.4313 61.7966 31.2813 62.1166 31.0613C62.4566 30.8413 62.6766 30.4813 62.7766 29.9813C62.8966 29.4813 62.9566 28.7913 62.9566 27.9113V14.0513C62.9566 13.3113 62.8966 12.7713 62.7766 12.4313C62.6766 12.0713 62.4566 11.8313 62.1166 11.7113C61.7966 11.5713 61.3066 11.4913 60.6466 11.4713V10.8713C60.9666 10.8913 61.3666 10.9113 61.8466 10.9313C62.3466 10.9513 62.8366 10.9613 63.3166 10.9613C64.0566 10.9613 64.7766 10.9513 65.4766 10.9313C66.1766 10.9113 66.7966 10.8913 67.3366 10.8713L73.7866 26.9813L73.1266 27.5213L79.3966 10.9613C79.6966 10.9613 80.0066 10.9613 80.3266 10.9613C80.6666 10.9613 80.9866 10.9613 81.2866 10.9613C82.1066 10.9613 82.9166 10.9513 83.7166 10.9313C84.5166 10.9113 85.1766 10.8913 85.6966 10.8713ZM93.8454 16.1813C95.6054 16.1813 96.9854 16.7113 97.9854 17.7713C98.9854 18.8313 99.4854 20.5213 99.4854 22.8413H89.3754L89.3454 22.2713H96.0054C96.0454 21.2913 95.9854 20.3913 95.8254 19.5713C95.6654 18.7313 95.4054 18.0613 95.0454 17.5613C94.7054 17.0613 94.2554 16.8113 93.6954 16.8113C92.9354 16.8113 92.2754 17.2613 91.7154 18.1613C91.1554 19.0413 90.8054 20.4913 90.6654 22.5113L90.7854 22.6913C90.7454 22.9513 90.7154 23.2313 90.6954 23.5313C90.6954 23.8313 90.6954 24.1313 90.6954 24.4313C90.6954 25.8113 90.8954 26.9513 91.2954 27.8513C91.6954 28.7513 92.2154 29.4113 92.8554 29.8313C93.4954 30.2513 94.1554 30.4613 94.8354 30.4613C95.2954 30.4613 95.7654 30.3913 96.2454 30.2513C96.7254 30.1113 97.1954 29.8513 97.6554 29.4713C98.1154 29.0913 98.5354 28.5513 98.9154 27.8513L99.4854 28.0913C99.2654 28.7913 98.8954 29.4913 98.3754 30.1913C97.8754 30.8713 97.2254 31.4313 96.4254 31.8713C95.6254 32.3113 94.6854 32.5313 93.6054 32.5313C92.2454 32.5313 91.0454 32.2313 90.0054 31.6313C88.9654 31.0313 88.1554 30.1413 87.5754 28.9613C86.9954 27.7613 86.7054 26.3013 86.7054 24.5813C86.7054 22.7613 87.0054 21.2313 87.6054 19.9913C88.2254 18.7513 89.0754 17.8113 90.1554 17.1713C91.2354 16.5113 92.4654 16.1813 93.8454 16.1813ZM111.335 16.1813C112.175 16.1813 112.845 16.2913 113.345 16.5113C113.865 16.7313 114.285 17.0113 114.605 17.3513C114.965 17.7313 115.215 18.2213 115.355 18.8213C115.515 19.4213 115.595 20.2313 115.595 21.2513V29.3213C115.595 30.1613 115.745 30.7313 116.045 31.0313C116.365 31.3313 116.895 31.4813 117.635 31.4813V32.1113C117.275 32.0913 116.715 32.0713 115.955 32.0513C115.215 32.0113 114.495 31.9913 113.795 31.9913C113.055 31.9913 112.335 32.0113 111.635 32.0513C110.935 32.0713 110.415 32.0913 110.075 32.1113V31.4813C110.715 31.4813 111.165 31.3313 111.425 31.0313C111.685 30.7313 111.815 30.1613 111.815 29.3213V20.2313C111.815 19.6913 111.765 19.2113 111.665 18.7913C111.565 18.3513 111.365 18.0113 111.065 17.7713C110.765 17.5113 110.335 17.3813 109.775 17.3813C109.115 17.3813 108.525 17.5613 108.005 17.9213C107.505 18.2813 107.105 18.7813 106.805 19.4213C106.525 20.0413 106.385 20.7413 106.385 21.5213V29.3213C106.385 30.1613 106.515 30.7313 106.775 31.0313C107.035 31.3313 107.485 31.4813 108.125 31.4813V32.1113C107.785 32.0913 107.275 32.0713 106.595 32.0513C105.915 32.0113 105.225 31.9913 104.525 31.9913C103.785 31.9913 103.035 32.0113 102.275 32.0513C101.515 32.0713 100.945 32.0913 100.565 32.1113V31.4813C101.305 31.4813 101.825 31.3313 102.125 31.0313C102.445 30.7313 102.605 30.1613 102.605 29.3213V19.8713C102.605 18.9713 102.455 18.3113 102.155 17.8913C101.875 17.4513 101.345 17.2313 100.565 17.2313V16.6013C101.205 16.6613 101.825 16.6913 102.425 16.6913C103.165 16.6913 103.865 16.6613 104.525 16.6013C105.205 16.5213 105.825 16.4113 106.385 16.2713V19.2713C106.885 18.1313 107.575 17.3313 108.455 16.8713C109.335 16.4113 110.295 16.1813 111.335 16.1813ZM128.837 16.1813C129.677 16.1813 130.347 16.2913 130.847 16.5113C131.367 16.7313 131.787 17.0113 132.107 17.3513C132.467 17.7313 132.717 18.2213 132.857 18.8213C133.017 19.4213 133.097 20.2313 133.097 21.2513V29.3213C133.097 30.1613 133.247 30.7313 133.547 31.0313C133.867 31.3313 134.397 31.4813 135.137 31.4813V32.1113C134.777 32.0913 134.217 32.0713 133.457 32.0513C132.717 32.0113 131.997 31.9913 131.297 31.9913C130.557 31.9913 129.837 32.0113 129.137 32.0513C128.437 32.0713 127.917 32.0913 127.577 32.1113V31.4813C128.217 31.4813 128.667 31.3313 128.927 31.0313C129.187 30.7313 129.317 30.1613 129.317 29.3213V20.2313C129.317 19.6913 129.267 19.2113 129.167 18.7913C129.067 18.3513 128.867 18.0113 128.567 17.7713C128.267 17.5113 127.837 17.3813 127.277 17.3813C126.617 17.3813 126.027 17.5613 125.507 17.9213C125.007 18.2813 124.607 18.7813 124.307 19.4213C124.027 20.0413 123.887 20.7413 123.887 21.5213V29.3213C123.887 30.1613 124.017 30.7313 124.277 31.0313C124.537 31.3313 124.987 31.4813 125.627 31.4813V32.1113C125.287 32.0913 124.777 32.0713 124.097 32.0513C123.417 32.0113 122.727 31.9913 122.027 31.9913C121.287 31.9913 120.537 32.0113 119.777 32.0513C119.017 32.0713 118.447 32.0913 118.067 32.1113V31.4813C118.807 31.4813 119.327 31.3313 119.627 31.0313C119.947 30.7313 120.107 30.1613 120.107 29.3213V19.8713C120.107 18.9713 119.957 18.3113 119.657 17.8913C119.377 17.4513 118.847 17.2313 118.067 17.2313V16.6013C118.707 16.6613 119.327 16.6913 119.927 16.6913C120.667 16.6913 121.367 16.6613 122.027 16.6013C122.707 16.5213 123.327 16.4113 123.887 16.2713V19.2713C124.387 18.1313 125.077 17.3313 125.957 16.8713C126.837 16.4113 127.797 16.1813 128.837 16.1813ZM139.739 32.3213C138.879 32.3213 138.149 32.1613 137.549 31.8413C136.949 31.5013 136.499 31.0513 136.199 30.4913C135.899 29.9113 135.749 29.2713 135.749 28.5713C135.749 27.7113 135.949 27.0113 136.349 26.4713C136.749 25.9113 137.259 25.4713 137.879 25.1513C138.519 24.8113 139.189 24.5313 139.889 24.3113C140.589 24.0713 141.249 23.8513 141.869 23.6513C142.489 23.4313 142.999 23.1813 143.399 22.9013C143.799 22.6213 143.999 22.2513 143.999 21.7913V19.6013C143.999 18.9613 143.899 18.4413 143.699 18.0413C143.519 17.6213 143.239 17.3113 142.859 17.1113C142.499 16.8913 142.039 16.7813 141.479 16.7813C141.059 16.7813 140.619 16.8413 140.159 16.9613C139.699 17.0813 139.319 17.3113 139.019 17.6513C139.539 17.7913 139.939 18.0513 140.219 18.4313C140.519 18.8113 140.669 19.2713 140.669 19.8113C140.669 20.4313 140.459 20.9213 140.039 21.2813C139.639 21.6213 139.129 21.7913 138.509 21.7913C137.849 21.7913 137.349 21.5813 137.009 21.1613C136.669 20.7413 136.499 20.2513 136.499 19.6913C136.499 19.1313 136.639 18.6713 136.919 18.3113C137.199 17.9313 137.589 17.5913 138.089 17.2913C138.589 16.9513 139.229 16.6813 140.009 16.4813C140.789 16.2813 141.639 16.1813 142.559 16.1813C143.439 16.1813 144.219 16.2813 144.899 16.4813C145.579 16.6613 146.159 16.9913 146.639 17.4713C147.119 17.9313 147.429 18.5013 147.569 19.1813C147.709 19.8613 147.779 20.6913 147.779 21.6713V29.8913C147.779 30.3913 147.839 30.7513 147.959 30.9713C148.079 31.1713 148.269 31.2713 148.529 31.2713C148.729 31.2713 148.919 31.2213 149.099 31.1213C149.279 31.0213 149.479 30.8813 149.699 30.7013L150.029 31.2113C149.589 31.5513 149.129 31.8213 148.649 32.0213C148.169 32.2213 147.589 32.3213 146.909 32.3213C146.209 32.3213 145.649 32.2213 145.229 32.0213C144.829 31.8213 144.529 31.5313 144.329 31.1513C144.149 30.7713 144.049 30.3213 144.029 29.8013C143.549 30.6013 142.959 31.2213 142.259 31.6613C141.559 32.1013 140.719 32.3213 139.739 32.3213ZM141.539 30.6413C142.019 30.6413 142.459 30.5113 142.859 30.2513C143.279 29.9913 143.659 29.6013 143.999 29.0813V23.0213C143.799 23.3213 143.509 23.5913 143.129 23.8313C142.769 24.0713 142.379 24.3113 141.959 24.5513C141.539 24.7913 141.139 25.0713 140.759 25.3913C140.399 25.6913 140.089 26.0713 139.829 26.5313C139.589 26.9713 139.469 27.5413 139.469 28.2413C139.469 29.0213 139.659 29.6213 140.039 30.0413C140.419 30.4413 140.919 30.6413 141.539 30.6413Z" fill="#497975"/>
</svg>
