<svg width="151" height="41" viewBox="0 0 151 41" fill="none" xmlns="http://www.w3.org/2000/svg">
<path d="M37.4447 39.8097C36.9384 40.0398 36.7352 39.5604 36.6969 39.292C35.2243 37.0831 34.1275 31.0086 33.7632 28.2475C33.0269 23.5997 33.0345 17.9125 33.1304 15.65C33.2685 6.63036 35.3738 2.72645 36.4092 1.90196C38.8942 -0.491004 41.3179 0.406356 42.2191 1.15416C43.5076 1.89045 44.8651 5.14242 45.3828 6.67637C45.9811 8.70119 46.1306 11.0481 46.1306 11.9685C46.3147 13.257 45.6321 16.417 45.2678 17.8359C44.3474 20.689 42.5067 22.246 41.7014 22.6678C38.25 24.5085 36.3134 22.5527 35.7765 21.3448C37.4467 24.1979 40.4223 23.3389 41.7014 22.5527C43.7262 21.3563 44.8076 18.8713 45.0952 17.7783C45.6935 16.3057 45.8814 13.2915 45.9006 11.9685C45.9466 10.0357 45.3445 7.63509 45.0377 6.67637C44.3014 3.86925 42.6984 2.017 41.989 1.44177C39.7801 -0.168876 37.5789 1.30755 36.7544 2.24709C34.3614 4.27191 33.7632 12.026 33.7632 15.65C33.1649 26.6484 36.0066 35.7255 37.5022 38.8893C37.8703 39.4415 37.6172 39.733 37.4447 39.8097Z" fill="white" stroke="white" stroke-width="0.7"/>
<path d="M43.7261 6.50435C47.2695 6.22824 49.0764 8.88223 49.5366 10.2436C47.972 6.88426 45.0107 6.42785 43.7261 6.61959C42.4376 6.61975 40.8884 7.46342 40.2749 7.88521C39.7682 7.93174 37.0347 10.2436 35.7309 11.394C35.3628 11.6701 33.0077 13.8482 31.8764 14.9028C31.646 15.1791 29.6337 16.8582 28.6557 17.6635C28.1577 18.071 26.4301 19.3285 25.5893 19.935C26.5505 21.9103 27.494 24.3059 27.9653 25.602C28.7936 27.4888 29.9596 32.7925 30.4389 35.2085C30.577 35.5766 30.3811 35.7837 30.2661 35.8413C29.8521 35.9792 29.6718 35.6307 29.6333 35.4389C29.1271 32.5399 27.7733 27.9037 27.1596 25.9477C26.9296 24.6593 25.6069 21.8062 24.9741 20.5405L24.98 20.5366L24.896 20.3452L24.8589 20.3676C21.0854 22.6685 18.4929 23.4743 17.6684 23.5893C14.9994 24.4636 11.6858 24.2217 10.3628 23.9917C7.5562 23.5775 5.12924 21.9019 4.26609 21.1157C2.01145 19.2291 0.949123 16.7249 0.699686 15.7085C-0.174478 12.3498 0.794701 10.0144 1.38914 9.26607C2.35553 7.56339 4.74506 6.79216 5.81883 6.61959C8.48769 6.20546 11.6091 7.09857 12.8364 7.59713C15.2751 8.42537 17.8022 10.3197 18.7612 11.1635C21.3382 13.1883 23.5167 16.303 24.2837 17.6069C24.6582 18.142 25.0666 18.8815 25.4761 19.7075C26.1499 19.3094 27.7901 18.0732 28.5405 17.4917C29.4609 16.7554 30.995 15.4204 31.647 14.8452C32.1537 14.3845 34.5422 12.2757 35.6733 11.2788C37.4693 9.53023 39.4508 8.17262 40.2173 7.71236C41.7815 6.7002 43.208 6.4853 43.7261 6.50435ZM12.6645 8.17232C9.81147 7.0219 6.95028 7.0414 5.87644 7.19478C3.66759 7.51691 2.19505 8.93968 1.73484 9.6108C0.446325 11.6816 0.814509 14.5388 1.15965 15.7085C1.75796 18.0552 3.70963 20.0989 4.61082 20.8276C6.4974 22.6682 9.26973 23.4733 10.4204 23.646C13.6415 24.1981 16.5561 23.6464 17.6108 23.3012C20.0038 22.8871 23.2103 21.1345 24.5141 20.31L24.8042 20.1352L24.6772 19.8471L23.6509 18.0092C22.6845 15.9384 19.7202 12.9274 18.3589 11.6811C16.7483 10.2087 13.8918 8.72845 12.6645 8.17232Z" fill="white"/>
<path d="M43.7261 6.50435L43.7132 6.85412L43.7332 6.85486L43.7532 6.8533L43.7261 6.50435ZM49.5366 10.2436L49.2193 10.3914L49.8682 10.1315L49.5366 10.2436ZM43.7261 6.61959L43.7261 6.96959L43.7521 6.96959L43.7777 6.96575L43.7261 6.61959ZM40.2749 7.88521L40.3069 8.23375L40.3979 8.22539L40.4732 8.17363L40.2749 7.88521ZM35.7309 11.394L35.9409 11.674L35.9521 11.6657L35.9625 11.6564L35.7309 11.394ZM31.8764 14.9028L31.6378 14.6468L31.6217 14.6618L31.6076 14.6787L31.8764 14.9028ZM28.6557 17.6635L28.8774 17.9344L28.8782 17.9337L28.6557 17.6635ZM25.5893 19.935L25.3846 19.6512L25.1458 19.8234L25.2746 20.0882L25.5893 19.935ZM27.9653 25.602L27.6364 25.7216L27.6403 25.7323L27.6448 25.7427L27.9653 25.602ZM30.4389 35.2085L30.0956 35.2766L30.1012 35.3046L30.1112 35.3313L30.4389 35.2085ZM30.2661 35.8413L30.3768 36.1733L30.4004 36.1654L30.4226 36.1543L30.2661 35.8413ZM29.6333 35.4389L29.2884 35.4991L29.2901 35.5078L29.6333 35.4389ZM27.1596 25.9477L26.8151 26.0092L26.819 26.0312L26.8257 26.0525L27.1596 25.9477ZM24.9741 20.5405L24.78 20.2493L24.5229 20.4207L24.661 20.697L24.9741 20.5405ZM24.98 20.5366L25.1741 20.8278L25.4185 20.6649L25.3005 20.396L24.98 20.5366ZM24.896 20.3452L25.2165 20.2045L25.0561 19.8391L24.7147 20.0457L24.896 20.3452ZM24.8589 20.3676L24.6776 20.0682L24.6767 20.0688L24.8589 20.3676ZM17.6684 23.5893L17.6201 23.2427L17.5892 23.247L17.5595 23.2567L17.6684 23.5893ZM10.3628 23.9917L10.4228 23.6467L10.4139 23.6454L10.3628 23.9917ZM4.26609 21.1157L4.50179 20.8569L4.49634 20.852L4.4907 20.8473L4.26609 21.1157ZM0.699686 15.7085L1.03963 15.625L1.0384 15.6203L0.699686 15.7085ZM1.38914 9.26607L1.6632 9.48377L1.68011 9.46248L1.69353 9.43884L1.38914 9.26607ZM5.81883 6.61959L5.76516 6.27372L5.76329 6.27402L5.81883 6.61959ZM12.8364 7.59713L12.7047 7.9214L12.7142 7.92525L12.7239 7.92854L12.8364 7.59713ZM18.7612 11.1635L18.53 11.4263L18.5373 11.4327L18.545 11.4387L18.7612 11.1635ZM24.2837 17.6069L23.982 17.7844L23.989 17.7963L23.9969 17.8076L24.2837 17.6069ZM25.4761 19.7075L25.1625 19.8629L25.3298 20.2004L25.6541 20.0088L25.4761 19.7075ZM28.5405 17.4917L28.7549 17.7683L28.7591 17.765L28.5405 17.4917ZM31.647 14.8452L31.8785 15.1076L31.8824 15.1042L31.647 14.8452ZM35.6733 11.2788L35.9047 11.5413L35.9113 11.5356L35.9175 11.5295L35.6733 11.2788ZM40.2173 7.71236L40.3975 8.01259L40.4074 8.00621L40.2173 7.71236ZM12.6645 8.17232L12.809 7.85353L12.8023 7.85048L12.7954 7.84772L12.6645 8.17232ZM5.87644 7.19478L5.82695 6.8483L5.82594 6.84845L5.87644 7.19478ZM1.73484 9.6108L1.44619 9.41286L1.44179 9.41928L1.43767 9.42589L1.73484 9.6108ZM1.15965 15.7085L1.49903 15.6219L1.49534 15.6094L1.15965 15.7085ZM4.61082 20.8276L4.85523 20.5771L4.84356 20.5657L4.83088 20.5554L4.61082 20.8276ZM10.4204 23.646L10.4795 23.3009L10.4723 23.2998L10.4204 23.646ZM17.6108 23.3012L17.5511 22.9564L17.5261 22.9607L17.502 22.9686L17.6108 23.3012ZM24.5141 20.31L24.3334 20.0102L24.3271 20.0142L24.5141 20.31ZM24.8042 20.1352L24.9848 20.435L25.2487 20.276L25.1245 19.9941L24.8042 20.1352ZM24.6772 19.8471L24.9975 19.706L24.9909 19.6909L24.9828 19.6765L24.6772 19.8471ZM23.6509 18.0092L23.3337 18.1572L23.3391 18.1688L23.3453 18.1799L23.6509 18.0092ZM18.3589 11.6811L18.5952 11.423L18.595 11.4228L18.3589 11.6811ZM43.7261 6.50435L43.7532 6.8533C47.0745 6.5945 48.7729 9.07721 49.205 10.3557L49.5366 10.2436L49.8682 10.1315C49.38 8.68725 47.4645 5.86199 43.6989 6.15541L43.7261 6.50435ZM49.5366 10.2436L49.8539 10.0958C48.2101 6.56653 45.0777 6.06397 43.6744 6.27342L43.7261 6.61959L43.7777 6.96575C44.9437 6.79172 47.7339 7.20199 49.2193 10.3914L49.5366 10.2436ZM43.7261 6.61959L43.726 6.26959C43.0142 6.26968 42.2547 6.5004 41.6113 6.77181C40.9635 7.04507 40.4021 7.37304 40.0766 7.5968L40.2749 7.88521L40.4732 8.17363C40.7612 7.9756 41.2811 7.67083 41.8834 7.41677C42.4901 7.16085 43.1495 6.96966 43.7261 6.96959L43.7261 6.61959ZM40.2749 7.88521L40.2429 7.53668C40.0975 7.55003 39.9405 7.62795 39.8176 7.69624C39.6774 7.77416 39.5133 7.88007 39.335 8.00371C38.9775 8.25167 38.5404 8.58669 38.0832 8.95234C37.1677 9.68457 36.1539 10.5541 35.4994 11.1316L35.7309 11.394L35.9625 11.6564C36.6117 11.0836 37.6165 10.2219 38.5204 9.499C38.973 9.13706 39.3957 8.81349 39.7339 8.57893C39.9035 8.46131 40.0463 8.36999 40.1577 8.30807C40.2864 8.23654 40.3256 8.23203 40.3069 8.23375L40.2749 7.88521ZM35.7309 11.394L35.5209 11.114C35.3191 11.2654 34.6205 11.8959 33.8535 12.5984C33.0763 13.3101 32.2039 14.119 31.6378 14.6468L31.8764 14.9028L32.1151 15.1588C32.6802 14.632 33.551 13.8245 34.3263 13.1146C35.1116 12.3953 35.7746 11.7987 35.9409 11.674L35.7309 11.394ZM31.8764 14.9028L31.6076 14.6787C31.5712 14.7224 31.4266 14.8589 31.1818 15.0752C30.948 15.2818 30.6464 15.541 30.32 15.8179C29.6676 16.3714 28.9214 16.9914 28.4332 17.3934L28.6557 17.6635L28.8782 17.9337C29.3681 17.5303 30.117 16.9081 30.7729 16.3517C31.1006 16.0736 31.4064 15.8109 31.6453 15.5997C31.8731 15.3984 32.0665 15.2214 32.1453 15.1269L31.8764 14.9028ZM28.6557 17.6635L28.4341 17.3926C27.9465 17.7916 26.2302 19.0411 25.3846 19.6512L25.5893 19.935L25.7941 20.2189C26.6301 19.6158 28.3689 18.3504 28.8774 17.9344L28.6557 17.6635ZM25.5893 19.935L25.2746 20.0882C26.2286 22.0487 27.1674 24.4319 27.6364 25.7216L27.9653 25.602L28.2942 25.4824C27.8206 24.1798 26.8724 21.772 25.9041 19.7819L25.5893 19.935ZM27.9653 25.602L27.6448 25.7427C28.0447 26.6536 28.5369 28.4214 28.993 30.2898C29.4465 32.1477 29.8567 34.0725 30.0956 35.2766L30.4389 35.2085L30.7823 35.1403C30.5418 33.9284 30.1294 31.9934 29.673 30.1238C29.2192 28.2646 28.7142 26.4372 28.2858 25.4613L27.9653 25.602ZM30.4389 35.2085L30.1112 35.3313C30.1322 35.3874 30.1366 35.4265 30.1364 35.4509C30.1361 35.4749 30.1313 35.4906 30.1269 35.5007C30.116 35.5256 30.0992 35.5334 30.1096 35.5282L30.2661 35.8413L30.4226 36.1543C30.548 36.0916 30.6867 35.967 30.7679 35.782C30.854 35.5858 30.8646 35.3469 30.7667 35.0856L30.4389 35.2085ZM30.2661 35.8413L30.1554 35.5092C30.1024 35.5269 30.0775 35.5227 30.0715 35.5214C30.0654 35.5201 30.0578 35.5172 30.0463 35.5066C30.0331 35.4944 30.0175 35.4741 30.0031 35.4454C29.9887 35.4167 29.9802 35.3886 29.9764 35.3701L29.6333 35.4389L29.2901 35.5078C29.319 35.6516 29.3998 35.8624 29.5715 36.0209C29.7669 36.2014 30.0489 36.2826 30.3768 36.1733L30.2661 35.8413ZM29.6333 35.4389L29.9781 35.3787C29.4676 32.455 28.1074 27.7995 27.4936 25.8429L27.1596 25.9477L26.8257 26.0525C27.4391 28.0078 28.7866 32.6248 29.2885 35.4991L29.6333 35.4389ZM27.1596 25.9477L27.5042 25.8862C27.3812 25.1977 26.9771 24.1279 26.5401 23.0988C26.0982 22.0584 25.6062 21.0221 25.2872 20.384L24.9741 20.5405L24.661 20.697C24.9748 21.3246 25.4605 22.3476 25.8958 23.3724C26.3357 24.4083 26.708 25.4094 26.8151 26.0092L27.1596 25.9477ZM24.9741 20.5405L25.1682 20.8317L25.1741 20.8278L24.98 20.5366L24.7858 20.2454L24.78 20.2493L24.9741 20.5405ZM24.98 20.5366L25.3005 20.396L25.2165 20.2045L24.896 20.3452L24.5755 20.4858L24.6595 20.6772L24.98 20.5366ZM24.896 20.3452L24.7147 20.0457L24.6776 20.0682L24.8589 20.3676L25.0401 20.6671L25.0772 20.6446L24.896 20.3452ZM24.8589 20.3676L24.6767 20.0688C20.9226 22.3579 18.3773 23.137 17.6201 23.2427L17.6684 23.5893L17.7168 23.936C18.6085 23.8115 21.2482 22.9792 25.0411 20.6665L24.8589 20.3676ZM17.6684 23.5893L17.5595 23.2567C14.968 24.1056 11.7194 23.8723 10.4227 23.6468L10.3628 23.9917L10.3028 24.3365C11.6521 24.5711 15.0308 24.8216 17.7774 23.9219L17.6684 23.5893ZM10.3628 23.9917L10.4139 23.6454C7.69742 23.2445 5.33206 21.6133 4.50179 20.8569L4.26609 21.1157L4.0304 21.3744C4.92642 22.1906 7.41499 23.9104 10.3117 24.3379L10.3628 23.9917ZM4.26609 21.1157L4.4907 20.8473C2.3033 19.017 1.27469 16.5831 1.0396 15.625L0.699686 15.7085L0.359771 15.7919C0.623554 16.8668 1.71961 19.4413 4.04149 21.3841L4.26609 21.1157ZM0.699686 15.7085L1.0384 15.6203C0.189047 12.357 1.14402 10.1373 1.6632 9.48377L1.38914 9.26607L1.11508 9.04837C0.445378 9.89144 -0.538003 12.3427 0.360971 15.7966L0.699686 15.7085ZM1.38914 9.26607L1.69353 9.43884C2.12872 8.67207 2.89929 8.09354 3.72054 7.68194C4.5385 7.27199 5.36979 7.04625 5.87436 6.96515L5.81883 6.61959L5.76329 6.27402C5.1941 6.3655 4.29374 6.61166 3.40689 7.05614C2.52334 7.49896 1.61595 8.1574 1.08475 9.09331L1.38914 9.26607ZM5.81883 6.61959L5.87249 6.96545C8.45077 6.56538 11.5026 7.43312 12.7047 7.9214L12.8364 7.59713L12.9681 7.27286C11.7155 6.76402 8.5246 5.84555 5.76516 6.27373L5.81883 6.61959ZM12.8364 7.59713L12.7239 7.92854C15.0995 8.73535 17.586 10.5956 18.53 11.4263L18.7612 11.1635L18.9924 10.9008C18.0185 10.0438 15.4508 8.11539 12.949 7.26572L12.8364 7.59713ZM18.7612 11.1635L18.545 11.4387C21.0743 13.4261 23.2265 16.5 23.982 17.7844L24.2837 17.6069L24.5853 17.4294C23.8069 16.1061 21.6022 12.9506 18.9774 10.8883L18.7612 11.1635ZM24.2837 17.6069L23.9969 17.8076C24.3563 18.321 24.7555 19.042 25.1625 19.8629L25.4761 19.7075L25.7896 19.552C25.3777 18.721 24.9601 17.9629 24.5704 17.4062L24.2837 17.6069ZM25.4761 19.7075L25.6541 20.0088C26.351 19.5971 28.0103 18.3453 28.7549 17.7683L28.5405 17.4917L28.3261 17.215C27.5699 17.8011 25.9488 19.0217 25.298 19.4061L25.4761 19.7075ZM28.5405 17.4917L28.7591 17.765C29.6869 17.0228 31.2267 15.6827 31.8785 15.1076L31.647 14.8452L31.4154 14.5827C30.7633 15.1581 29.2349 16.4879 28.3219 17.2184L28.5405 17.4917ZM31.647 14.8452L31.8824 15.1042C32.3866 14.6458 34.7722 12.5395 35.9047 11.5413L35.6733 11.2788L35.4419 11.0162C34.3123 12.0118 31.9209 14.1232 31.4115 14.5862L31.647 14.8452ZM35.6733 11.2788L35.9175 11.5295C37.6909 9.80298 39.6499 8.46129 40.3974 8.01242L40.2173 7.71236L40.0371 7.4123C39.2516 7.88395 37.2477 9.25749 35.4292 11.028L35.6733 11.2788ZM40.2173 7.71236L40.4074 8.00621C41.9163 7.02985 43.2727 6.83791 43.7132 6.85412L43.7261 6.50435L43.7389 6.15459C43.1434 6.13268 41.6467 6.37055 40.0271 7.41851L40.2173 7.71236ZM12.6645 8.17232L12.7954 7.84772C9.87586 6.67048 6.95098 6.68775 5.82695 6.8483L5.87644 7.19478L5.92593 7.54127C6.94959 7.39505 9.74708 7.37332 12.5336 8.49693L12.6645 8.17232ZM5.87644 7.19478L5.82594 6.84845C3.50011 7.18763 1.94878 8.67994 1.44619 9.41286L1.73484 9.6108L2.02349 9.80874C2.44132 9.19943 3.83507 7.84619 5.92695 7.54112L5.87644 7.19478ZM1.73484 9.6108L1.43767 9.42589C0.748762 10.5331 0.511433 11.8338 0.484718 12.9895C0.457974 14.1463 0.641489 15.1891 0.823957 15.8075L1.15965 15.7085L1.49534 15.6094C1.33267 15.0581 1.15952 14.0875 1.18453 13.0057C1.20957 11.9226 1.43241 10.7594 2.03201 9.79571L1.73484 9.6108ZM1.15965 15.7085L0.820496 15.7949C1.13512 17.029 1.80068 18.1687 2.49223 19.0856C3.18447 20.0033 3.91753 20.7171 4.39076 21.0998L4.61082 20.8276L4.83088 20.5554C4.40292 20.2094 3.70955 19.537 3.05108 18.664C2.39193 17.7902 1.78249 16.7347 1.4988 15.622L1.15965 15.7085ZM4.61082 20.8276L4.36641 21.0781C6.32504 22.989 9.17783 23.8134 10.3684 23.9921L10.4204 23.646L10.4723 23.2998C9.36163 23.1332 6.66975 22.3473 4.85523 20.5771L4.61082 20.8276ZM10.4204 23.646L10.3613 23.9909C13.6455 24.5539 16.6179 23.9944 17.7197 23.6339L17.6108 23.3012L17.502 22.9686C16.4942 23.2984 13.6374 23.8423 10.4795 23.301L10.4204 23.646ZM17.6108 23.3012L17.6705 23.6461C18.9132 23.431 20.3465 22.8737 21.6196 22.2764C22.8971 21.6769 24.0375 21.0255 24.7012 20.6058L24.5141 20.31L24.3271 20.0142C23.6869 20.419 22.5721 21.0562 21.3222 21.6426C20.0679 22.2312 18.7014 22.7573 17.5511 22.9564L17.6108 23.3012ZM24.5141 20.31L24.6948 20.6098L24.9848 20.435L24.8042 20.1352L24.6235 19.8354L24.3335 20.0103L24.5141 20.31ZM24.8042 20.1352L25.1245 19.9941L24.9975 19.706L24.6772 19.8471L24.3569 19.9883L24.4839 20.2764L24.8042 20.1352ZM24.6772 19.8471L24.9828 19.6765L23.9564 17.8386L23.6509 18.0092L23.3453 18.1799L24.3716 20.0178L24.6772 19.8471ZM23.6509 18.0092L23.968 17.8612C23.462 16.777 22.45 15.4747 21.4152 14.3042C20.3741 13.1265 19.2839 12.0534 18.5952 11.423L18.3589 11.6811L18.1225 11.9393C18.7952 12.5551 19.8678 13.6107 20.8908 14.7678C21.92 15.932 22.8733 17.1707 23.3337 18.1572L23.6509 18.0092ZM18.3589 11.6811L18.595 11.4228C16.9414 9.91105 14.0421 8.41231 12.809 7.85353L12.6645 8.17232L12.5201 8.49112C13.7414 9.04458 16.5551 10.5063 18.1227 11.9394L18.3589 11.6811Z" fill="white"/>
<path d="M85.6966 10.8704V11.4704C85.0566 11.4904 84.5666 11.5704 84.2266 11.7104C83.8866 11.8304 83.6566 12.0704 83.5366 12.4304C83.4366 12.7704 83.3866 13.3103 83.3866 14.0503V28.9304C83.3866 29.6504 83.4466 30.1904 83.5666 30.5504C83.6866 30.9104 83.9066 31.1504 84.2266 31.2704C84.5666 31.3904 85.0566 31.4704 85.6966 31.5104V32.1104C85.1766 32.0704 84.5166 32.0504 83.7166 32.0504C82.9166 32.0304 82.1066 32.0204 81.2866 32.0204C80.3866 32.0204 79.5366 32.0304 78.7366 32.0504C77.9566 32.0504 77.3266 32.0704 76.8466 32.1104V31.5104C77.5266 31.4704 78.0366 31.3904 78.3766 31.2704C78.7366 31.1504 78.9766 30.9104 79.0966 30.5504C79.2166 30.1904 79.2766 29.6504 79.2766 28.9304V12.6104L79.4866 12.6404L72.0466 32.2004H71.5666L63.6466 12.7903V27.6704C63.6466 28.6304 63.7066 29.3804 63.8266 29.9204C63.9466 30.4404 64.2066 30.8204 64.6066 31.0604C65.0266 31.2804 65.6566 31.4304 66.4966 31.5104V32.1104C66.1166 32.0704 65.6266 32.0504 65.0266 32.0504C64.4266 32.0304 63.8566 32.0204 63.3166 32.0204C62.8366 32.0204 62.3466 32.0304 61.8466 32.0504C61.3666 32.0504 60.9666 32.0704 60.6466 32.1104V31.5104C61.3066 31.4304 61.7966 31.2804 62.1166 31.0604C62.4566 30.8404 62.6766 30.4804 62.7766 29.9804C62.8966 29.4804 62.9566 28.7904 62.9566 27.9104V14.0503C62.9566 13.3103 62.8966 12.7704 62.7766 12.4304C62.6766 12.0704 62.4566 11.8304 62.1166 11.7104C61.7966 11.5704 61.3066 11.4904 60.6466 11.4704V10.8704C60.9666 10.8904 61.3666 10.9104 61.8466 10.9304C62.3466 10.9504 62.8366 10.9604 63.3166 10.9604C64.0566 10.9604 64.7766 10.9504 65.4766 10.9304C66.1766 10.9104 66.7966 10.8904 67.3366 10.8704L73.7866 26.9804L73.1266 27.5204L79.3966 10.9604C79.6966 10.9604 80.0066 10.9604 80.3266 10.9604C80.6666 10.9604 80.9866 10.9604 81.2866 10.9604C82.1066 10.9604 82.9166 10.9504 83.7166 10.9304C84.5166 10.9104 85.1766 10.8904 85.6966 10.8704ZM93.8454 16.1804C95.6054 16.1804 96.9854 16.7104 97.9854 17.7704C98.9854 18.8304 99.4854 20.5204 99.4854 22.8404H89.3754L89.3454 22.2704H96.0054C96.0454 21.2904 95.9854 20.3904 95.8254 19.5704C95.6654 18.7304 95.4054 18.0604 95.0454 17.5604C94.7054 17.0604 94.2554 16.8104 93.6954 16.8104C92.9354 16.8104 92.2754 17.2604 91.7154 18.1604C91.1554 19.0404 90.8054 20.4904 90.6654 22.5104L90.7854 22.6904C90.7454 22.9504 90.7154 23.2304 90.6954 23.5304C90.6954 23.8304 90.6954 24.1304 90.6954 24.4304C90.6954 25.8104 90.8954 26.9504 91.2954 27.8504C91.6954 28.7504 92.2154 29.4104 92.8554 29.8304C93.4954 30.2504 94.1554 30.4604 94.8354 30.4604C95.2954 30.4604 95.7654 30.3904 96.2454 30.2504C96.7254 30.1104 97.1954 29.8504 97.6554 29.4704C98.1154 29.0904 98.5354 28.5504 98.9154 27.8504L99.4854 28.0904C99.2654 28.7904 98.8954 29.4904 98.3754 30.1904C97.8754 30.8704 97.2254 31.4304 96.4254 31.8704C95.6254 32.3104 94.6854 32.5304 93.6054 32.5304C92.2454 32.5304 91.0454 32.2304 90.0054 31.6304C88.9654 31.0304 88.1554 30.1404 87.5754 28.9604C86.9954 27.7604 86.7054 26.3004 86.7054 24.5804C86.7054 22.7604 87.0054 21.2304 87.6054 19.9904C88.2254 18.7504 89.0754 17.8104 90.1554 17.1704C91.2354 16.5104 92.4654 16.1804 93.8454 16.1804ZM111.335 16.1804C112.175 16.1804 112.845 16.2904 113.345 16.5104C113.865 16.7304 114.285 17.0104 114.605 17.3504C114.965 17.7304 115.215 18.2204 115.355 18.8204C115.515 19.4204 115.595 20.2304 115.595 21.2504V29.3204C115.595 30.1604 115.745 30.7304 116.045 31.0304C116.365 31.3304 116.895 31.4804 117.635 31.4804V32.1104C117.275 32.0904 116.715 32.0704 115.955 32.0504C115.215 32.0104 114.495 31.9904 113.795 31.9904C113.055 31.9904 112.335 32.0104 111.635 32.0504C110.935 32.0704 110.415 32.0904 110.075 32.1104V31.4804C110.715 31.4804 111.165 31.3304 111.425 31.0304C111.685 30.7304 111.815 30.1604 111.815 29.3204V20.2304C111.815 19.6904 111.765 19.2104 111.665 18.7904C111.565 18.3504 111.365 18.0104 111.065 17.7704C110.765 17.5104 110.335 17.3804 109.775 17.3804C109.115 17.3804 108.525 17.5604 108.005 17.9204C107.505 18.2804 107.105 18.7804 106.805 19.4204C106.525 20.0404 106.385 20.7404 106.385 21.5204V29.3204C106.385 30.1604 106.515 30.7304 106.775 31.0304C107.035 31.3304 107.485 31.4804 108.125 31.4804V32.1104C107.785 32.0904 107.275 32.0704 106.595 32.0504C105.915 32.0104 105.225 31.9904 104.525 31.9904C103.785 31.9904 103.035 32.0104 102.275 32.0504C101.515 32.0704 100.945 32.0904 100.565 32.1104V31.4804C101.305 31.4804 101.825 31.3304 102.125 31.0304C102.445 30.7304 102.605 30.1604 102.605 29.3204V19.8704C102.605 18.9704 102.455 18.3104 102.155 17.8904C101.875 17.4504 101.345 17.2304 100.565 17.2304V16.6004C101.205 16.6604 101.825 16.6904 102.425 16.6904C103.165 16.6904 103.865 16.6604 104.525 16.6004C105.205 16.5204 105.825 16.4104 106.385 16.2704V19.2704C106.885 18.1304 107.575 17.3304 108.455 16.8704C109.335 16.4104 110.295 16.1804 111.335 16.1804ZM128.837 16.1804C129.677 16.1804 130.347 16.2904 130.847 16.5104C131.367 16.7304 131.787 17.0104 132.107 17.3504C132.467 17.7304 132.717 18.2204 132.857 18.8204C133.017 19.4204 133.097 20.2304 133.097 21.2504V29.3204C133.097 30.1604 133.247 30.7304 133.547 31.0304C133.867 31.3304 134.397 31.4804 135.137 31.4804V32.1104C134.777 32.0904 134.217 32.0704 133.457 32.0504C132.717 32.0104 131.997 31.9904 131.297 31.9904C130.557 31.9904 129.837 32.0104 129.137 32.0504C128.437 32.0704 127.917 32.0904 127.577 32.1104V31.4804C128.217 31.4804 128.667 31.3304 128.927 31.0304C129.187 30.7304 129.317 30.1604 129.317 29.3204V20.2304C129.317 19.6904 129.267 19.2104 129.167 18.7904C129.067 18.3504 128.867 18.0104 128.567 17.7704C128.267 17.5104 127.837 17.3804 127.277 17.3804C126.617 17.3804 126.027 17.5604 125.507 17.9204C125.007 18.2804 124.607 18.7804 124.307 19.4204C124.027 20.0404 123.887 20.7404 123.887 21.5204V29.3204C123.887 30.1604 124.017 30.7304 124.277 31.0304C124.537 31.3304 124.987 31.4804 125.627 31.4804V32.1104C125.287 32.0904 124.777 32.0704 124.097 32.0504C123.417 32.0104 122.727 31.9904 122.027 31.9904C121.287 31.9904 120.537 32.0104 119.777 32.0504C119.017 32.0704 118.447 32.0904 118.067 32.1104V31.4804C118.807 31.4804 119.327 31.3304 119.627 31.0304C119.947 30.7304 120.107 30.1604 120.107 29.3204V19.8704C120.107 18.9704 119.957 18.3104 119.657 17.8904C119.377 17.4504 118.847 17.2304 118.067 17.2304V16.6004C118.707 16.6604 119.327 16.6904 119.927 16.6904C120.667 16.6904 121.367 16.6604 122.027 16.6004C122.707 16.5204 123.327 16.4104 123.887 16.2704V19.2704C124.387 18.1304 125.077 17.3304 125.957 16.8704C126.837 16.4104 127.797 16.1804 128.837 16.1804ZM139.739 32.3204C138.879 32.3204 138.149 32.1604 137.549 31.8404C136.949 31.5004 136.499 31.0504 136.199 30.4904C135.899 29.9104 135.749 29.2704 135.749 28.5704C135.749 27.7104 135.949 27.0104 136.349 26.4704C136.749 25.9104 137.259 25.4704 137.879 25.1504C138.519 24.8104 139.189 24.5304 139.889 24.3104C140.589 24.0704 141.249 23.8504 141.869 23.6504C142.489 23.4304 142.999 23.1804 143.399 22.9004C143.799 22.6204 143.999 22.2504 143.999 21.7904V19.6004C143.999 18.9604 143.899 18.4404 143.699 18.0404C143.519 17.6204 143.239 17.3104 142.859 17.1104C142.499 16.8904 142.039 16.7804 141.479 16.7804C141.059 16.7804 140.619 16.8404 140.159 16.9604C139.699 17.0804 139.319 17.3104 139.019 17.6504C139.539 17.7904 139.939 18.0504 140.219 18.4304C140.519 18.8104 140.669 19.2704 140.669 19.8104C140.669 20.4304 140.459 20.9204 140.039 21.2804C139.639 21.6204 139.129 21.7904 138.509 21.7904C137.849 21.7904 137.349 21.5804 137.009 21.1604C136.669 20.7404 136.499 20.2504 136.499 19.6904C136.499 19.1304 136.639 18.6704 136.919 18.3104C137.199 17.9304 137.589 17.5904 138.089 17.2904C138.589 16.9504 139.229 16.6804 140.009 16.4804C140.789 16.2804 141.639 16.1804 142.559 16.1804C143.439 16.1804 144.219 16.2804 144.899 16.4804C145.579 16.6604 146.159 16.9904 146.639 17.4704C147.119 17.9304 147.429 18.5004 147.569 19.1804C147.709 19.8604 147.779 20.6904 147.779 21.6704V29.8904C147.779 30.3904 147.839 30.7504 147.959 30.9704C148.079 31.1704 148.269 31.2704 148.529 31.2704C148.729 31.2704 148.919 31.2204 149.099 31.1204C149.279 31.0204 149.479 30.8804 149.699 30.7004L150.029 31.2104C149.589 31.5504 149.129 31.8204 148.649 32.0204C148.169 32.2204 147.589 32.3204 146.909 32.3204C146.209 32.3204 145.649 32.2204 145.229 32.0204C144.829 31.8204 144.529 31.5304 144.329 31.1504C144.149 30.7704 144.049 30.3204 144.029 29.8004C143.549 30.6004 142.959 31.2204 142.259 31.6604C141.559 32.1004 140.719 32.3204 139.739 32.3204ZM141.539 30.6404C142.019 30.6404 142.459 30.5104 142.859 30.2504C143.279 29.9904 143.659 29.6004 143.999 29.0804V23.0204C143.799 23.3204 143.509 23.5904 143.129 23.8304C142.769 24.0704 142.379 24.3104 141.959 24.5504C141.539 24.7904 141.139 25.0704 140.759 25.3904C140.399 25.6904 140.089 26.0704 139.829 26.5304C139.589 26.9704 139.469 27.5404 139.469 28.2404C139.469 29.0204 139.659 29.6204 140.039 30.0404C140.419 30.4404 140.919 30.6404 141.539 30.6404Z" fill="white"/>
</svg>
